<?xml version="1.0" encoding="UTF-8" standalone="no"?>
<svg
   xmlns:dc="http://purl.org/dc/elements/1.1/"
   xmlns:cc="http://creativecommons.org/ns#"
   xmlns:rdf="http://www.w3.org/1999/02/22-rdf-syntax-ns#"
   xmlns:svg="http://www.w3.org/2000/svg"
   xmlns="http://www.w3.org/2000/svg"
   xmlns:sodipodi="http://sodipodi.sourceforge.net/DTD/sodipodi-0.dtd"
   xmlns:inkscape="http://www.inkscape.org/namespaces/inkscape"
   version="1.0"
   width="787px"
   height="1184px"
   viewBox="0 0 7870 11840"
   preserveAspectRatio="xMidYMid meet"
   id="svg3913"
   sodipodi:docname="BVP-logobk-rgb.svg"
   inkscape:version="0.92.3 (2405546, 2018-03-11)">
  <metadata
     id="metadata3919">
    <rdf:RDF>
      <cc:Work
         rdf:about="">
        <dc:format>image/svg+xml</dc:format>
        <dc:type
           rdf:resource="http://purl.org/dc/dcmitype/StillImage" />
      </cc:Work>
    </rdf:RDF>
  </metadata>
  <defs
     id="defs3917" />
  <sodipodi:namedview
     pagecolor="#ffffff"
     bordercolor="#666666"
     borderopacity="1"
     objecttolerance="10"
     gridtolerance="10"
     guidetolerance="10"
     inkscape:pageopacity="0"
     inkscape:pageshadow="2"
     inkscape:window-width="1920"
     inkscape:window-height="1020"
     id="namedview3915"
     showgrid="false"
     inkscape:zoom="0.49509419"
     inkscape:cx="-182.43222"
     inkscape:cy="638.49247"
     inkscape:window-x="0"
     inkscape:window-y="0"
     inkscape:window-maximized="1"
     inkscape:current-layer="svg3913" />
  <g
     id="layer101"
     fill="#cc1720"
     stroke="none">
    <path
       d="M0 5920 l0 -5920 3935 0 3935 0 0 5920 0 5920 -3935 0 -3935 0 0 -5920z"
       id="path3836" />
  </g>
  <g
     id="layer102"
     stroke="none"
     fill="#cf1628">
    <path
       d="M0 5920 l0 -5920 3935 0 3935 0 0 5920 0 5920 -3935 0 -3935 0 0 -5920z m40 5906 c0 -3 -5 -8 -12 -12 -7 -4 -8 -3 -4 4 7 12 16 16 16 8z m30 -40 c0 -3 -5 -8 -12 -12 -7 -4 -8 -3 -4 4 7 12 16 16 16 8z m2410 -560 c0 -3 -4 -8 -10 -11 -5 -3 -10 -1 -10 4 0 6 5 11 10 11 6 0 10 -2 10 -4z m67 -3 c-4 -3 -10 -3 -14 0 -3 4 0 7 7 7 7 0 10 -3 7 -7z m78 -3 c3 -5 4 -10 1 -10 -3 0 -8 5 -11 10 -3 6 -4 10 -1 10 3 0 8 -4 11 -10z m3473 -15 c-3 -3 -9 2 -12 12 -6 14 -5 15 5 6 7 -7 10 -15 7 -18z m39 8 c-4 -3 -7 0 -7 7 0 7 3 10 7 7 3 -4 3 -10 0 -14z m-4281 -8 c-3 -20 -16 -31 -16 -13 0 13 8 28 16 28 1 0 1 -7 0 -15z m3771 8 c-4 -3 -10 -3 -14 0 -3 4 0 7 7 7 7 0 10 -3 7 -7z m53 -3 c0 -5 -2 -10 -4 -10 -3 0 -8 5 -11 10 -3 6 -1 10 4 10 6 0 11 -4 11 -10z m-4663 -7 c-4 -3 -10 -3 -14 0 -3 4 0 7 7 7 7 0 10 -3 7 -7z m5250 0 c-4 -3 -10 -3 -14 0 -3 4 0 7 7 7 7 0 10 -3 7 -7z m1070 -10 c-4 -3 -7 0 -7 7 0 7 3 10 7 7 3 -4 3 -10 0 -14z m-4670 -10 c-4 -3 -7 0 -7 7 0 7 3 10 7 7 3 -4 3 -10 0 -14z m1958 7 c3 -5 4 -10 1 -10 -3 0 -8 5 -11 10 -3 6 -4 10 -1 10 3 0 8 -4 11 -10z m1352 -17 c-4 -3 -7 0 -7 7 0 7 3 10 7 7 3 -4 3 -10 0 -14z m333 13 c0 -3 -5 -8 -12 -12 -7 -4 -8 -3 -4 4 7 12 16 16 16 8z m-3550 -20 c0 -3 -5 -8 -12 -12 -7 -4 -8 -3 -4 4 7 12 16 16 16 8z m1860 0 c0 -3 -4 -8 -10 -11 -5 -3 -10 -1 -10 4 0 6 5 11 10 11 6 0 10 -2 10 -4z m257 -23 c-4 -3 -7 0 -7 7 0 7 3 10 7 7 3 -4 3 -10 0 -14z m1053 13 c0 -3 -5 -8 -12 -12 -7 -4 -8 -3 -4 4 7 12 16 16 16 8z m-3815 -16 c3 -5 4 -10 1 -10 -3 0 -8 5 -11 10 -3 6 -4 10 -1 10 3 0 8 -4 11 -10z m4205 6 c0 -3 -5 -8 -12 -12 -7 -4 -8 -3 -4 4 7 12 16 16 16 8z m267 -3 c-4 -3 -10 -3 -14 0 -3 4 0 7 7 7 7 0 10 -3 7 -7z m-5212 -12 c3 -5 1 -12 -5 -16 -5 -3 -10 1 -10 9 0 18 6 21 15 7z m990 -1 c3 -5 4 -10 1 -10 -3 0 -8 5 -11 10 -3 6 -4 10 -1 10 3 0 8 -4 11 -10z m4020 0 c3 -5 1 -10 -4 -10 -6 0 -11 5 -11 10 0 6 2 10 4 10 3 0 8 -4 11 -10z m670 -19 c3 -5 2 -12 -3 -15 -5 -3 -9 1 -9 9 0 17 3 19 12 6z m-1165 -5 c0 -2 -7 -7 -16 -10 -8 -3 -12 -2 -9 4 6 10 25 14 25 6z m495 -6 c3 -5 4 -10 1 -10 -3 0 -8 5 -11 10 -3 6 -4 10 -1 10 3 0 8 -4 11 -10z m-5155 -35 c0 -5 -5 -3 -10 5 -5 8 -10 20 -10 25 0 6 5 3 10 -5 5 -8 10 -19 10 -25z m5185 25 c3 -5 4 -10 1 -10 -3 0 -8 5 -11 10 -3 6 -4 10 -1 10 3 0 8 -4 11 -10z m-1555 -10 c0 -5 -2 -10 -4 -10 -3 0 -8 5 -11 10 -3 6 -1 10 4 10 6 0 11 -4 11 -10z m-3483 -17 c-4 -3 -7 0 -7 7 0 7 3 10 7 7 3 -4 3 -10 0 -14z m5210 0 c-4 -3 -7 0 -7 7 0 7 3 10 7 7 3 -4 3 -10 0 -14z m-4346 -16 c-10 -9 -11 -8 -5 6 3 10 9 15 12 12 3 -3 0 -11 -7 -18z m4809 -1 c0 -3 -5 -8 -12 -12 -7 -4 -8 -3 -4 4 7 12 16 16 16 8z m257 -13 c-4 -3 -7 0 -7 7 0 7 3 10 7 7 3 -4 3 -10 0 -14z m-1187 2 c0 -7 -30 -13 -34 -7 -3 4 4 9 15 9 10 1 19 0 19 -2z m-5270 -36 c0 -17 -4 -28 -10 -24 -5 3 -8 16 -6 28 6 28 5 27 11 27 3 0 5 -14 5 -31z m537 14 c-4 -3 -7 0 -7 7 0 7 3 10 7 7 3 -4 3 -10 0 -14z m4450 10 c-4 -3 -10 -3 -14 0 -3 4 0 7 7 7 7 0 10 -3 7 -7z m-4587 -17 c0 -3 -5 -8 -12 -12 -7 -4 -8 -3 -4 4 7 12 16 16 16 8z m1233 -11 c-3 -9 -8 -14 -10 -11 -3 3 -2 9 2 15 9 16 15 13 8 -4z m147 11 c0 -3 -5 -8 -12 -12 -7 -4 -8 -3 -4 4 7 12 16 16 16 8z m250 -6 c0 -5 -5 -10 -11 -10 -5 0 -7 5 -4 10 3 6 8 10 11 10 2 0 4 -4 4 -10z m3193 -5 c-3 -9 -8 -14 -10 -11 -3 3 -2 9 2 15 9 16 15 13 8 -4z m-1248 -5 c3 -5 4 -10 1 -10 -3 0 -8 5 -11 10 -3 6 -4 10 -1 10 3 0 8 -4 11 -10z m2475 -10 c0 -5 -5 -10 -11 -10 -5 0 -7 5 -4 10 3 6 8 10 11 10 2 0 4 -4 4 -10z m-4835 -10 c3 -5 4 -10 1 -10 -3 0 -8 5 -11 10 -3 6 -4 10 -1 10 3 0 8 -4 11 -10z m-1062 -20 c3 -11 1 -18 -4 -14 -5 3 -9 12 -9 20 0 20 7 17 13 -6z m3144 -7 c-4 -3 -7 0 -7 7 0 7 3 10 7 7 3 -4 3 -10 0 -14z m1933 7 c0 -5 -5 -10 -11 -10 -5 0 -7 5 -4 10 3 6 8 10 11 10 2 0 4 -4 4 -10z m-3593 -17 c-4 -3 -7 0 -7 7 0 7 3 10 7 7 3 -4 3 -10 0 -14z m3728 7 c3 -5 4 -10 1 -10 -3 0 -8 5 -11 10 -3 6 -4 10 -1 10 3 0 8 -4 11 -10z m-4538 -17 c-4 -3 -7 0 -7 7 0 7 3 10 7 7 3 -4 3 -10 0 -14z m2730 0 c-4 -3 -7 0 -7 7 0 7 3 10 7 7 3 -4 3 -10 0 -14z m2483 1 c0 -8 -5 -12 -10 -9 -6 4 -8 11 -5 16 9 14 15 11 15 -7z m-665 -23 c3 -5 1 -12 -5 -16 -5 -3 -10 1 -10 9 0 18 6 21 15 7z m652 -16 c0 -8 -4 -12 -9 -9 -5 3 -6 10 -3 15 9 13 12 11 12 -6z m-5207 -5 c0 -5 -2 -10 -4 -10 -3 0 -8 5 -11 10 -3 6 -1 10 4 10 6 0 11 -4 11 -10z m2717 -17 c-4 -3 -7 0 -7 7 0 7 3 10 7 7 3 -4 3 -10 0 -14z m-3162 -3 c3 -5 4 -10 1 -10 -3 0 -8 5 -11 10 -3 6 -4 10 -1 10 3 0 8 -4 11 -10z m55 6 c0 -3 -5 -8 -12 -12 -7 -4 -8 -3 -4 4 7 12 16 16 16 8z m-263 -23 c-4 -3 -7 0 -7 7 0 7 3 10 7 7 3 -4 3 -10 0 -14z m3048 7 c3 -5 4 -10 1 -10 -3 0 -8 5 -11 10 -3 6 -4 10 -1 10 3 0 8 -4 11 -10z m2162 -7 c-4 -3 -7 0 -7 7 0 7 3 10 7 7 3 -4 3 -10 0 -14z m-1850 -10 c-4 -3 -7 0 -7 7 0 7 3 10 7 7 3 -4 3 -10 0 -14z m-3092 -3 c3 -5 -1 -10 -10 -10 -9 0 -13 5 -10 10 3 6 8 10 10 10 2 0 7 -4 10 -10z m142 -7 c-4 -3 -7 0 -7 7 0 7 3 10 7 7 3 -4 3 -10 0 -14z m5440 0 c-4 -3 -7 0 -7 7 0 7 3 10 7 7 3 -4 3 -10 0 -14z m-2712 -13 c3 -5 4 -10 1 -10 -3 0 -8 5 -11 10 -3 6 -4 10 -1 10 3 0 8 -4 11 -10z m2305 6 c0 -3 -5 -8 -12 -12 -7 -4 -8 -3 -4 4 7 12 16 16 16 8z m-1643 -33 c-4 -3 -10 -3 -14 0 -3 4 0 7 7 7 7 0 10 -3 7 -7z m1808 -3 c3 -5 4 -10 1 -10 -3 0 -8 5 -11 10 -3 6 -4 10 -1 10 3 0 8 -4 11 -10z m200 -40 c3 -5 4 -10 1 -10 -3 0 -8 5 -11 10 -3 6 -4 10 -1 10 3 0 8 -4 11 -10z m-5188 -17 c-4 -3 -7 0 -7 7 0 7 3 10 7 7 3 -4 3 -10 0 -14z m-1042 -3 c3 -5 4 -10 1 -10 -3 0 -8 5 -11 10 -3 6 -4 10 -1 10 3 0 8 -4 11 -10z m810 -9 c3 -5 1 -12 -5 -16 -5 -3 -10 1 -10 9 0 18 6 21 15 7z m35 -25 c0 -3 -5 -8 -12 -12 -7 -4 -8 -3 -4 4 7 12 16 16 16 8z m5167 -13 c-4 -3 -7 0 -7 7 0 7 3 10 7 7 3 -4 3 -10 0 -14z m228 7 c3 -5 4 -10 1 -10 -3 0 -8 5 -11 10 -3 6 -4 10 -1 10 3 0 8 -4 11 -10z m-6215 -4 c0 -3 -5 -8 -12 -12 -7 -4 -8 -3 -4 4 7 12 16 16 16 8z m1010 -16 c0 -5 -5 -10 -11 -10 -5 0 -7 5 -4 10 3 6 8 10 11 10 2 0 4 -4 4 -10z m2690 0 c0 -5 -2 -10 -4 -10 -3 0 -8 5 -11 10 -3 6 -1 10 4 10 6 0 11 -4 11 -10z m-3685 -10 c3 -5 4 -10 1 -10 -3 0 -8 5 -11 10 -3 6 -4 10 -1 10 3 0 8 -4 11 -10z m792 3 c-4 -3 -10 -3 -14 0 -3 4 0 7 7 7 7 0 10 -3 7 -7z m-647 -17 c0 -3 -5 -8 -12 -12 -7 -4 -8 -3 -4 4 7 12 16 16 16 8z m-75 -36 c-3 -5 4 -12 16 -15 11 -4 18 -9 16 -12 -9 -9 -47 18 -47 33 0 8 5 12 10 9 6 -4 8 -10 5 -15z m415 16 c0 -3 -5 -8 -12 -12 -7 -4 -8 -3 -4 4 7 12 16 16 16 8z m500 -6 c0 -5 -5 -10 -11 -10 -5 0 -7 5 -4 10 3 6 8 10 11 10 2 0 4 -4 4 -10z m2640 -24 c0 -3 -5 -8 -12 -12 -7 -4 -8 -3 -4 4 7 12 16 16 16 8z m-205 -46 c3 -5 4 -10 1 -10 -3 0 -8 5 -11 10 -3 6 -4 10 -1 10 3 0 8 -4 11 -10z m-3295 -10 c0 -5 -2 -10 -4 -10 -3 0 -8 5 -11 10 -3 6 -1 10 4 10 6 0 11 -4 11 -10z m6047 -17 c-4 -3 -7 0 -7 7 0 7 3 10 7 7 3 -4 3 -10 0 -14z m-6047 -7 c0 -3 -5 -8 -12 -12 -7 -4 -8 -3 -4 4 7 12 16 16 16 8z m3298 -21 c-3 -3 -9 2 -12 12 -6 14 -5 15 5 6 7 -7 10 -15 7 -18z m937 15 c3 -5 -1 -10 -10 -10 -9 0 -13 5 -10 10 3 6 8 10 10 10 2 0 7 -4 10 -10z m-3610 -9 c3 -5 1 -12 -5 -16 -5 -3 -10 1 -10 9 0 18 6 21 15 7z m3445 5 c0 -3 -5 -8 -12 -12 -7 -4 -8 -3 -4 4 7 12 16 16 16 8z m-3743 -33 c-4 -3 -7 0 -7 7 0 7 3 10 7 7 3 -4 3 -10 0 -14z m5220 10 c-4 -3 -10 -3 -14 0 -3 4 0 7 7 7 7 0 10 -3 7 -7z m-5012 -13 c3 -5 4 -10 1 -10 -3 0 -8 5 -11 10 -3 6 -4 10 -1 10 3 0 8 -4 11 -10z m2785 6 c0 -3 -5 -8 -12 -12 -7 -4 -8 -3 -4 4 7 12 16 16 16 8z m10 -30 c0 -3 -5 -8 -12 -12 -7 -4 -8 -3 -4 4 7 12 16 16 16 8z m2535 -6 c3 -5 4 -10 1 -10 -3 0 -8 5 -11 10 -3 6 -4 10 -1 10 3 0 8 -4 11 -10z m-5990 -10 c3 -5 4 -10 1 -10 -3 0 -8 5 -11 10 -3 6 -4 10 -1 10 3 0 8 -4 11 -10z m937 -22 c-8 -8 -9 -4 -5 13 4 13 8 18 11 10 2 -7 -1 -18 -6 -23z m2752 16 c3 -8 2 -12 -4 -9 -6 3 -10 10 -10 16 0 14 7 11 14 -7z m2421 6 c3 -5 4 -10 1 -10 -3 0 -8 5 -11 10 -3 6 -4 10 -1 10 3 0 8 -4 11 -10z m-5637 -45 c-3 -3 -9 2 -12 12 -6 14 -5 15 5 6 7 -7 10 -15 7 -18z m267 -5 c3 -5 1 -10 -4 -10 -6 0 -11 5 -11 10 0 6 2 10 4 10 3 0 8 -4 11 -10z m190 0 c3 -5 4 -10 1 -10 -3 0 -8 5 -11 10 -3 6 -4 10 -1 10 3 0 8 -4 11 -10z m4515 -10 c0 -5 -2 -10 -4 -10 -3 0 -8 5 -11 10 -3 6 -1 10 4 10 6 0 11 -4 11 -10z m237 -17 c-4 -3 -7 0 -7 7 0 7 3 10 7 7 3 -4 3 -10 0 -14z m203 7 c0 -5 -5 -10 -11 -10 -5 0 -7 5 -4 10 3 6 8 10 11 10 2 0 4 -4 4 -10z m-440 -14 c0 -3 -5 -8 -12 -12 -7 -4 -8 -3 -4 4 7 12 16 16 16 8z m525 -16 c3 -5 4 -10 1 -10 -3 0 -8 5 -11 10 -3 6 -4 10 -1 10 3 0 8 -4 11 -10z m-5488 -27 c-4 -3 -7 0 -7 7 0 7 3 10 7 7 3 -4 3 -10 0 -14z m1118 7 c3 -5 1 -10 -4 -10 -6 0 -11 5 -11 10 0 6 2 10 4 10 3 0 8 -4 11 -10z m4290 0 c3 -5 4 -10 1 -10 -3 0 -8 5 -11 10 -3 6 -4 10 -1 10 3 0 8 -4 11 -10z m54 -3 c8 -10 7 -14 -4 -14 -8 0 -15 6 -15 14 0 7 2 13 4 13 2 0 9 -6 15 -13z m-4742 -14 c-4 -3 -7 0 -7 7 0 7 3 10 7 7 3 -4 3 -10 0 -14z m4658 7 c3 -5 4 -10 1 -10 -3 0 -8 5 -11 10 -3 6 -4 10 -1 10 3 0 8 -4 11 -10z m-5655 -18 c0 -12 -3 -12 -15 -2 -8 7 -15 13 -15 15 0 1 7 2 15 2 8 0 15 -7 15 -15z m5230 8 c0 -5 -5 -10 -11 -10 -5 0 -7 5 -4 10 3 6 8 10 11 10 2 0 4 -4 4 -10z m-3985 -10 c3 -5 2 -10 -4 -10 -5 0 -13 5 -16 10 -3 6 -2 10 4 10 5 0 13 -4 16 -10z m-730 -10 c3 -5 4 -10 1 -10 -3 0 -8 5 -11 10 -3 6 -4 10 -1 10 3 0 8 -4 11 -10z m472 -7 c-4 -3 -7 0 -7 7 0 7 3 10 7 7 3 -4 3 -10 0 -14z m2573 13 c0 -3 -5 -8 -12 -12 -7 -4 -8 -3 -4 4 7 12 16 16 16 8z m2175 -14 c-3 -3 -11 0 -18 7 -9 10 -8 11 6 5 10 -3 15 -9 12 -12z m-5436 -5 c8 -10 7 -14 -4 -14 -8 0 -15 6 -15 14 0 7 2 13 4 13 2 0 9 -6 15 -13z m4561 3 c8 -5 11 -10 5 -10 -5 0 -17 5 -25 10 -8 5 -10 10 -5 10 6 0 17 -5 25 -10z m-3243 -27 c-4 -3 -10 -3 -14 0 -3 4 0 7 7 7 7 0 10 -3 7 -7z m1700 -10 c-4 -3 -7 0 -7 7 0 7 3 10 7 7 3 -4 3 -10 0 -14z m-2290 -10 c-4 -3 -10 -3 -14 0 -3 4 0 7 7 7 7 0 10 -3 7 -7z m2320 0 c-4 -3 -10 -3 -14 0 -3 4 0 7 7 7 7 0 10 -3 7 -7z m1330 -20 c-4 -3 -10 -3 -14 0 -3 4 0 7 7 7 7 0 10 -3 7 -7z m-3087 -7 c0 -3 -5 -8 -12 -12 -7 -4 -8 -3 -4 4 7 12 16 16 16 8z m1747 -13 c-4 -3 -7 0 -7 7 0 7 3 10 7 7 3 -4 3 -10 0 -14z m1840 10 c-4 -3 -10 -3 -14 0 -3 4 0 7 7 7 7 0 10 -3 7 -7z m-4487 -18 c0 -8 -4 -15 -10 -15 -5 0 -7 7 -4 15 4 8 8 15 10 15 2 0 4 -7 4 -15z m2920 11 c0 -3 -5 -8 -12 -12 -7 -4 -8 -3 -4 4 7 12 16 16 16 8z m-255 -26 c3 -5 1 -10 -4 -10 -6 0 -11 5 -11 10 0 6 2 10 4 10 3 0 8 -4 11 -10z m1770 -10 c3 -6 -1 -7 -9 -4 -18 7 -21 14 -7 14 6 0 13 -4 16 -10z m-4450 -10 c3 -5 4 -10 1 -10 -3 0 -8 5 -11 10 -3 6 -4 10 -1 10 3 0 8 -4 11 -10z m855 -5 c-7 -9 -15 -13 -19 -10 -3 3 1 10 9 15 21 14 24 12 10 -5z m3995 5 c3 -5 1 -10 -4 -10 -6 0 -11 5 -11 10 0 6 2 10 4 10 3 0 8 -4 11 -10z m-1888 -17 c-4 -3 -10 -3 -14 0 -3 4 0 7 7 7 7 0 10 -3 7 -7z m-3737 -7 c0 -3 -5 -8 -12 -12 -7 -4 -8 -3 -4 4 7 12 16 16 16 8z m780 0 c0 -3 -5 -8 -12 -12 -7 -4 -8 -3 -4 4 7 12 16 16 16 8z m455 -6 c3 -6 -1 -7 -9 -4 -18 7 -21 14 -7 14 6 0 13 -4 16 -10z m338 -5 c-3 -9 -8 -14 -10 -11 -3 3 -2 9 2 15 9 16 15 13 8 -4z m3276 -8 c0 -9 -2 -8 -6 1 -2 6 -10 9 -15 6 -7 -4 -8 -2 -4 5 9 13 26 5 25 -12z m278 6 c-4 -3 -7 0 -7 7 0 7 3 10 7 7 3 -4 3 -10 0 -14z m-4710 -10 c-4 -3 -7 0 -7 7 0 7 3 10 7 7 3 -4 3 -10 0 -14z m-492 -3 c3 -5 4 -10 1 -10 -3 0 -8 5 -11 10 -3 6 -4 10 -1 10 3 0 8 -4 11 -10z m3565 6 c0 -3 -5 -8 -12 -12 -7 -4 -8 -3 -4 4 7 12 16 16 16 8z m1050 -6 c0 -5 -5 -10 -11 -10 -5 0 -7 5 -4 10 3 6 8 10 11 10 2 0 4 -4 4 -10z m364 2 c3 -5 -1 -9 -9 -9 -8 0 -12 4 -9 9 3 4 7 8 9 8 2 0 6 -4 9 -8z m-3597 -9 c-4 -3 -10 -3 -14 0 -3 4 0 7 7 7 7 0 10 -3 7 -7z m3810 0 c-4 -3 -10 -3 -14 0 -3 4 0 7 7 7 7 0 10 -3 7 -7z m-3740 -10 c-4 -3 -10 -3 -14 0 -3 4 0 7 7 7 7 0 10 -3 7 -7z m-837 -137 c0 -3 -5 -8 -12 -12 -7 -4 -8 -3 -4 4 7 12 16 16 16 8z m145 -6 c3 -5 1 -10 -4 -10 -6 0 -11 5 -11 10 0 6 2 10 4 10 3 0 8 -4 11 -10z m-148 -37 c-4 -3 -7 0 -7 7 0 7 3 10 7 7 3 -4 3 -10 0 -14z m168 7 c3 -5 4 -10 1 -10 -3 0 -8 5 -11 10 -3 6 -4 10 -1 10 3 0 8 -4 11 -10z m-150 -30 c3 -5 1 -10 -4 -10 -6 0 -11 5 -11 10 0 6 2 10 4 10 3 0 8 -4 11 -10z m1452 -247 c-4 -3 -7 0 -7 7 0 7 3 10 7 7 3 -4 3 -10 0 -14z m53 -17 c0 -3 -5 -8 -12 -12 -7 -4 -8 -3 -4 4 7 12 16 16 16 8z m-90 -10 c0 -3 -5 -8 -12 -12 -7 -4 -8 -3 -4 4 7 12 16 16 16 8z m130 0 c0 -3 -5 -8 -12 -12 -7 -4 -8 -3 -4 4 7 12 16 16 16 8z m-160 -30 c0 -3 -5 -8 -12 -12 -7 -4 -8 -3 -4 4 7 12 16 16 16 8z m205 -16 c3 -5 4 -10 1 -10 -3 0 -8 5 -11 10 -3 6 -4 10 -1 10 3 0 8 -4 11 -10z m-388 -27 c-4 -3 -10 -3 -14 0 -3 4 0 7 7 7 7 0 10 -3 7 -7z m393 1 c0 -8 -19 -13 -24 -6 -3 5 1 9 9 9 8 0 15 -2 15 -3z m-423 -11 c-4 -3 -10 -3 -14 0 -3 4 0 7 7 7 7 0 10 -3 7 -7z m-2807 -17 c0 -2 -6 -9 -14 -15 -11 -9 -16 -9 -22 0 -4 7 -3 9 4 5 6 -3 13 -2 17 4 6 10 15 14 15 6z m2690 -940 c0 -3 -5 -8 -12 -12 -7 -4 -8 -3 -4 4 7 12 16 16 16 8z m107 -3 c-4 -3 -10 -3 -14 0 -3 4 0 7 7 7 7 0 10 -3 7 -7z m-47 -7 c0 -3 -5 -8 -12 -12 -7 -4 -8 -3 -4 4 7 12 16 16 16 8z m-145 -46 c3 -5 4 -10 1 -10 -3 0 -8 5 -11 10 -3 6 -4 10 -1 10 3 0 8 -4 11 -10z m32 3 c-4 -3 -10 -3 -14 0 -3 4 0 7 7 7 7 0 10 -3 7 -7z m-237 -107 c0 -3 -5 -8 -12 -12 -7 -4 -8 -3 -4 4 7 12 16 16 16 8z m537 -3 c-4 -3 -10 -3 -14 0 -3 4 0 7 7 7 7 0 10 -3 7 -7z m148 -3 c3 -5 4 -10 1 -10 -3 0 -8 5 -11 10 -3 6 -4 10 -1 10 3 0 8 -4 11 -10z m-290 -30 c3 -5 4 -10 1 -10 -3 0 -8 5 -11 10 -3 6 -4 10 -1 10 3 0 8 -4 11 -10z m-35 -10 c0 -5 -2 -10 -4 -10 -3 0 -8 5 -11 10 -3 6 -1 10 4 10 6 0 11 -4 11 -10z m-473 -30 c-14 -11 -28 -20 -32 -20 -10 0 38 39 49 40 5 0 -3 -9 -17 -20z m413 10 c0 -5 -5 -10 -11 -10 -5 0 -7 5 -4 10 3 6 8 10 11 10 2 0 4 -4 4 -10z m-73 -27 c-4 -3 -10 -3 -14 0 -3 4 0 7 7 7 7 0 10 -3 7 -7z m-92 -43 c-3 -5 -12 -10 -18 -10 -7 0 -6 4 3 10 19 12 23 12 15 0z m-689 -18 c-3 -3 2 -11 12 -19 16 -13 16 -14 -2 -5 -11 5 -21 17 -22 26 -1 9 2 13 8 10 5 -3 7 -8 4 -12z m654 4 c0 -3 -5 -8 -12 -12 -7 -4 -8 -3 -4 4 7 12 16 16 16 8z m-753 -13 c-4 -3 -10 -3 -14 0 -3 4 0 7 7 7 7 0 10 -3 7 -7z m33 3 c0 -3 -5 -8 -12 -12 -7 -4 -8 -3 -4 4 7 12 16 16 16 8z m727 -33 c-4 -3 -10 -3 -14 0 -3 4 0 7 7 7 7 0 10 -3 7 -7z m-592 -13 c3 -6 -1 -7 -9 -4 -18 7 -21 14 -7 14 6 0 13 -4 16 -10z m-172 -15 c-3 -9 -8 -14 -10 -11 -3 3 -2 9 2 15 9 16 15 13 8 -4z m222 -15 c3 -5 4 -10 1 -10 -3 0 -8 5 -11 10 -3 6 -4 10 -1 10 3 0 8 -4 11 -10z m135 6 c0 -3 -5 -8 -12 -12 -7 -4 -8 -3 -4 4 7 12 16 16 16 8z m284 -4 c3 -5 -1 -9 -9 -9 -8 0 -12 4 -9 9 3 4 7 8 9 8 2 0 6 -4 9 -8z m-397 -19 c-4 -3 -7 0 -7 7 0 7 3 10 7 7 3 -4 3 -10 0 -14z m-287 -33 c-8 -5 -11 -10 -7 -10 5 0 5 -5 2 -10 -4 -6 -11 -8 -16 -4 -12 7 8 34 25 34 6 0 4 -5 -4 -10z m347 3 c-4 -3 -10 -3 -14 0 -3 4 0 7 7 7 7 0 10 -3 7 -7z m-390 -20 c-4 -3 -10 -3 -14 0 -3 4 0 7 7 7 7 0 10 -3 7 -7z m558 -73 c-21 -22 -36 -40 -31 -40 4 0 4 -5 1 -10 -4 -6 -11 -7 -17 -4 -9 6 67 94 81 94 3 0 -13 -18 -34 -40z m-608 -77 c-4 -3 -10 -3 -14 0 -3 4 0 7 7 7 7 0 10 -3 7 -7z m-7 -17 c0 -3 -4 -8 -10 -11 -5 -3 -10 -1 -10 4 0 6 5 11 10 11 6 0 10 -2 10 -4z m-46 -81 c-4 -8 -8 -15 -10 -15 -2 0 -4 7 -4 15 0 8 4 15 10 15 5 0 7 -7 4 -15z m-74 -9 c0 -3 -5 -8 -12 -12 -7 -4 -8 -3 -4 4 7 12 16 16 16 8z m540 -70 c0 -3 -5 -8 -12 -12 -7 -4 -8 -3 -4 4 7 12 16 16 16 8z m-40 -74 c0 -5 -7 -17 -15 -28 -14 -18 -14 -17 -4 9 12 27 19 34 19 19z m-485 -30 c-3 -3 -11 0 -18 7 -9 10 -8 11 6 5 10 -3 15 -9 12 -12z m30 -12 c3 -5 4 -10 1 -10 -3 0 -8 5 -11 10 -3 6 -4 10 -1 10 3 0 8 -4 11 -10z m65 -34 c0 -3 -5 -8 -12 -12 -7 -4 -8 -3 -4 4 7 12 16 16 16 8z m100 -60 c0 -3 -5 -8 -12 -12 -7 -4 -8 -3 -4 4 7 12 16 16 16 8z m225 -26 c3 -5 1 -10 -4 -10 -6 0 -11 5 -11 10 0 6 2 10 4 10 3 0 8 -4 11 -10z m-278 -387 c-4 -3 -7 0 -7 7 0 7 3 10 7 7 3 -4 3 -10 0 -14z m1533 -47 c0 -3 -5 -8 -12 -12 -7 -4 -8 -3 -4 4 7 12 16 16 16 8z m80 -50 c0 -3 -5 -8 -12 -12 -7 -4 -8 -3 -4 4 7 12 16 16 16 8z m-83 -13 c-4 -3 -10 -3 -14 0 -3 4 0 7 7 7 7 0 10 -3 7 -7z m28 -3 c3 -5 4 -10 1 -10 -3 0 -8 5 -11 10 -3 6 -4 10 -1 10 3 0 8 -4 11 -10z m35 -34 c0 -3 -5 -8 -12 -12 -7 -4 -8 -3 -4 4 7 12 16 16 16 8z m15 -46 c3 -5 4 -10 1 -10 -3 0 -8 5 -11 10 -3 6 -4 10 -1 10 3 0 8 -4 11 -10z m-15 -30 c6 -11 8 -20 6 -20 -3 0 -10 9 -16 20 -6 11 -8 20 -6 20 3 0 10 -9 16 -20z m-143 -7 c-4 -3 -7 0 -7 7 0 7 3 10 7 7 3 -4 3 -10 0 -14z m180 10 c-4 -3 -10 -3 -14 0 -3 4 0 7 7 7 7 0 10 -3 7 -7z m-1402 -22 c3 -5 2 -12 -3 -15 -5 -3 -9 1 -9 9 0 17 3 19 12 6z m52 -28 c-4 -3 -7 0 -7 7 0 7 3 10 7 7 3 -4 3 -10 0 -14z m1330 10 c-4 -3 -10 -3 -14 0 -3 4 0 7 7 7 7 0 10 -3 7 -7z m-1567 -19 c0 -8 -5 -12 -10 -9 -6 4 -8 11 -5 16 9 14 15 11 15 -7z m1577 -11 c-4 -3 -7 0 -7 7 0 7 3 10 7 7 3 -4 3 -10 0 -14z m50 10 c-4 -3 -10 -3 -14 0 -3 4 0 7 7 7 7 0 10 -3 7 -7z m23 -17 c0 -3 -5 -8 -12 -12 -7 -4 -8 -3 -4 4 7 12 16 16 16 8z m-55 -16 c3 -5 4 -10 1 -10 -3 0 -8 5 -11 10 -3 6 -4 10 -1 10 3 0 8 -4 11 -10z m60 -20 c3 -5 4 -10 1 -10 -3 0 -8 5 -11 10 -3 6 -4 10 -1 10 3 0 8 -4 11 -10z m43 -15 c-3 -3 -9 2 -12 12 -6 14 -5 15 5 6 7 -7 10 -15 7 -18z m-1443 5 c3 -5 4 -10 1 -10 -3 0 -8 5 -11 10 -3 6 -4 10 -1 10 3 0 8 -4 11 -10z m1359 -6 c3 -8 2 -12 -4 -9 -6 3 -10 10 -10 16 0 14 7 11 14 -7z m-1409 -4 c3 -5 1 -10 -4 -10 -6 0 -11 5 -11 10 0 6 2 10 4 10 3 0 8 -4 11 -10z m1470 -10 c3 -5 4 -10 1 -10 -3 0 -8 5 -11 10 -3 6 -4 10 -1 10 3 0 8 -4 11 -10z m-1 -106 c3 -8 2 -12 -4 -9 -6 3 -10 10 -10 16 0 14 7 11 14 -7z m91 -34 c3 -5 4 -10 1 -10 -3 0 -8 5 -11 10 -3 6 -4 10 -1 10 3 0 8 -4 11 -10z m-1518 -17 c-4 -3 -7 0 -7 7 0 7 3 10 7 7 3 -4 3 -10 0 -14z m-307 -7 c0 -3 -4 -8 -10 -11 -5 -3 -10 -1 -10 4 0 6 5 11 10 11 6 0 10 -2 10 -4z m331 -23 c13 -16 12 -17 -3 -4 -10 7 -18 15 -18 17 0 8 8 3 21 -13z m-361 3 c0 -2 -7 -7 -16 -10 -8 -3 -12 -2 -9 4 6 10 25 14 25 6z m-90 -20 c0 -3 -5 -8 -12 -12 -7 -4 -8 -3 -4 4 7 12 16 16 16 8z m1995 -16 c3 -5 4 -10 1 -10 -3 0 -8 5 -11 10 -3 6 -4 10 -1 10 3 0 8 -4 11 -10z m-1975 -4 c0 -2 -7 -7 -16 -10 -8 -3 -12 -2 -9 4 6 10 25 14 25 6z m448 -21 c-3 -3 -9 2 -12 12 -6 14 -5 15 5 6 7 -7 10 -15 7 -18z m1547 -5 c3 -5 4 -10 1 -10 -3 0 -8 5 -11 10 -3 6 -4 10 -1 10 3 0 8 -4 11 -10z m-1522 -27 c-3 -7 -6 -13 -8 -13 -2 0 -5 6 -8 13 -3 8 1 14 8 14 7 0 11 -6 8 -14z m32 -23 c3 -5 4 -10 1 -10 -3 0 -8 5 -11 10 -3 6 -4 10 -1 10 3 0 8 -4 11 -10z m-535 -4 c0 -3 -5 -8 -12 -12 -7 -4 -8 -3 -4 4 7 12 16 16 16 8z m2067 -3 c-4 -3 -10 -3 -14 0 -3 4 0 7 7 7 7 0 10 -3 7 -7z m-1529 -48 c-3 -3 -9 2 -12 12 -6 14 -5 15 5 6 7 -7 10 -15 7 -18z m1447 15 c3 -5 4 -10 1 -10 -3 0 -8 5 -11 10 -3 6 -4 10 -1 10 3 0 8 -4 11 -10z m-1965 -4 c0 -3 -5 -8 -12 -12 -7 -4 -8 -3 -4 4 7 12 16 16 16 8z m1984 -32 c3 -8 2 -12 -4 -9 -6 3 -10 10 -10 16 0 14 7 11 14 -7z m111 -14 c3 -5 4 -10 1 -10 -3 0 -8 5 -11 10 -3 6 -4 10 -1 10 3 0 8 -4 11 -10z m-81 -47 c9 -18 14 -33 12 -33 -6 0 -36 55 -36 66 0 11 5 3 24 -33z m-1977 20 c-4 -3 -10 -3 -14 0 -3 4 0 7 7 7 7 0 10 -3 7 -7z m538 -13 c3 -5 4 -10 1 -10 -3 0 -8 5 -11 10 -3 6 -4 10 -1 10 3 0 8 -4 11 -10z m1392 -7 c-4 -3 -7 0 -7 7 0 7 3 10 7 7 3 -4 3 -10 0 -14z m160 0 c-4 -3 -10 -3 -14 0 -3 4 0 7 7 7 7 0 10 -3 7 -7z m-2070 -30 c-4 -3 -10 -3 -14 0 -3 4 0 7 7 7 7 0 10 -3 7 -7z m28 -23 c3 -5 4 -10 1 -10 -3 0 -8 5 -11 10 -3 6 -4 10 -1 10 3 0 8 -4 11 -10z m1952 3 c-4 -3 -10 -3 -14 0 -3 4 0 7 7 7 7 0 10 -3 7 -7z m128 -13 c3 -5 4 -10 1 -10 -3 0 -8 5 -11 10 -3 6 -4 10 -1 10 3 0 8 -4 11 -10z m-1525 -10 c0 -5 -2 -10 -4 -10 -3 0 -8 5 -11 10 -3 6 -1 10 4 10 6 0 11 -4 11 -10z m1417 -17 c-4 -3 -10 -3 -14 0 -3 4 0 7 7 7 7 0 10 -3 7 -7z m-1377 -17 c0 -3 -5 -8 -12 -12 -7 -4 -8 -3 -4 4 7 12 16 16 16 8z m24 -37 c-3 -5 -10 -7 -15 -3 -5 3 -7 10 -3 15 3 5 10 7 15 3 5 -3 7 -10 3 -15z m26 -13 c0 -3 -5 -8 -12 -12 -7 -4 -8 -3 -4 4 7 12 16 16 16 8z m-567 -31 c4 -8 3 -16 -1 -19 -4 -3 -9 4 -9 15 -2 23 3 25 10 4z m2101 -16 c-3 -5 -10 -7 -15 -3 -5 3 -7 10 -3 15 3 5 10 7 15 3 5 -3 7 -10 3 -15z m-2134 7 c0 -3 -5 -8 -12 -12 -7 -4 -8 -3 -4 4 7 12 16 16 16 8z m60 -41 c14 -19 14 -19 -2 -6 -10 7 -18 18 -18 24 0 6 1 8 3 6 1 -2 9 -13 17 -24z m601 8 c13 -16 12 -17 -3 -4 -10 7 -18 15 -18 17 0 8 8 3 21 -13z m-256 -23 c-3 -5 -11 -10 -16 -10 -6 0 -7 5 -4 10 3 6 11 10 16 10 6 0 7 -4 4 -10z m30 -10 c3 -5 1 -10 -4 -10 -6 0 -11 5 -11 10 0 6 2 10 4 10 3 0 8 -4 11 -10z m280 -10 c3 -5 4 -10 1 -10 -3 0 -8 5 -11 10 -3 6 -4 10 -1 10 3 0 8 -4 11 -10z m1280 -10 c3 -5 4 -10 1 -10 -3 0 -8 5 -11 10 -3 6 -4 10 -1 10 3 0 8 -4 11 -10z m192 -7 c-4 -3 -10 -3 -14 0 -3 4 0 7 7 7 7 0 10 -3 7 -7z m-1870 -20 c-4 -3 -7 0 -7 7 0 7 3 10 7 7 3 -4 3 -10 0 -14z m1910 10 c-4 -3 -10 -3 -14 0 -3 4 0 7 7 7 7 0 10 -3 7 -7z m-13 -39 c3 -8 2 -12 -4 -9 -6 3 -10 10 -10 16 0 14 7 11 14 -7z m71 6 c3 -5 4 -10 1 -10 -3 0 -8 5 -11 10 -3 6 -4 10 -1 10 3 0 8 -4 11 -10z m-2168 -17 c-4 -3 -7 0 -7 7 0 7 3 10 7 7 3 -4 3 -10 0 -14z m698 7 c3 -5 4 -10 1 -10 -3 0 -8 5 -11 10 -3 6 -4 10 -1 10 3 0 8 -4 11 -10z m-550 -10 c3 -5 4 -10 1 -10 -3 0 -8 5 -11 10 -3 6 -4 10 -1 10 3 0 8 -4 11 -10z m599 -15 c10 -8 23 -12 29 -8 6 3 7 1 3 -5 -5 -8 -13 -9 -24 -2 -33 19 -47 30 -37 30 6 -1 19 -7 29 -15z m1214 -12 c11 -19 9 -20 -10 -15 -13 3 -17 7 -11 9 7 3 9 12 6 21 -8 22 1 13 15 -15z m-1953 -3 c3 -5 4 -10 1 -10 -3 0 -8 5 -11 10 -3 6 -4 10 -1 10 3 0 8 -4 11 -10z m455 -14 c0 -3 -5 -8 -12 -12 -7 -4 -8 -3 -4 4 7 12 16 16 16 8z m424 -31 c3 3 2 0 -2 -5 -11 -13 -44 -2 -36 12 4 5 11 5 18 -1 7 -6 16 -9 20 -6z m1115 -32 c12 -24 19 -43 16 -43 -5 0 -45 75 -45 86 0 11 6 2 29 -43z m-1494 27 c3 -5 4 -10 1 -10 -3 0 -8 5 -11 10 -3 6 -4 10 -1 10 3 0 8 -4 11 -10z m496 -47 c12 -16 12 -17 -2 -6 -9 7 -20 9 -24 5 -5 -4 -5 -1 -1 6 9 16 11 15 27 -5z m-406 -13 c3 -5 4 -10 1 -10 -3 0 -8 5 -11 10 -3 6 -4 10 -1 10 3 0 8 -4 11 -10z m462 -7 c-4 -3 -10 -3 -14 0 -3 4 0 7 7 7 7 0 10 -3 7 -7z m68 -13 c3 -5 4 -10 1 -10 -3 0 -8 5 -11 10 -3 6 -4 10 -1 10 3 0 8 -4 11 -10z m-480 -10 c3 -5 4 -10 1 -10 -3 0 -8 5 -11 10 -3 6 -4 10 -1 10 3 0 8 -4 11 -10z m1575 6 c0 -3 -5 -8 -12 -12 -7 -4 -8 -3 -4 4 7 12 16 16 16 8z m-1380 -100 c0 -3 -5 -8 -12 -12 -7 -4 -8 -3 -4 4 7 12 16 16 16 8z m1250 -20 c0 -2 -7 -7 -16 -10 -8 -3 -12 -2 -9 4 6 10 25 14 25 6z m-1133 -33 c-4 -3 -7 0 -7 7 0 7 3 10 7 7 3 -4 3 -10 0 -14z m1120 -30 c-4 -3 -7 0 -7 7 0 7 3 10 7 7 3 -4 3 -10 0 -14z m268 -33 c3 -5 4 -10 1 -10 -3 0 -8 5 -11 10 -3 6 -4 10 -1 10 3 0 8 -4 11 -10z m115 -74 c0 -3 -5 -8 -12 -12 -7 -4 -8 -3 -4 4 7 12 16 16 16 8z m-305 -66 c3 -5 4 -10 1 -10 -3 0 -8 5 -11 10 -3 6 -4 10 -1 10 3 0 8 -4 11 -10z m64 -20 c11 -24 11 -24 -3 -6 -9 11 -16 24 -16 30 0 12 5 7 19 -24z m241 6 c0 -3 -5 -8 -12 -12 -7 -4 -8 -3 -4 4 7 12 16 16 16 8z m10 -20 c0 -3 -5 -8 -12 -12 -7 -4 -8 -3 -4 4 7 12 16 16 16 8z m-263 -33 c-4 -3 -10 -3 -14 0 -3 4 0 7 7 7 7 0 10 -3 7 -7z m312 -67 c-3 -3 -11 5 -18 17 -13 21 -12 21 5 5 10 -10 16 -20 13 -22z m-1492 -13 c-4 -3 -7 0 -7 7 0 7 3 10 7 7 3 -4 3 -10 0 -14z m1228 7 c3 -5 4 -10 1 -10 -3 0 -8 5 -11 10 -3 6 -4 10 -1 10 3 0 8 -4 11 -10z m39 -26 c3 -8 2 -12 -4 -9 -6 3 -10 10 -10 16 0 14 7 11 14 -7z m-57 -11 c-4 -3 -7 0 -7 7 0 7 3 10 7 7 3 -4 3 -10 0 -14z m338 -43 c3 -5 4 -10 1 -10 -3 0 -8 5 -11 10 -3 6 -4 10 -1 10 3 0 8 -4 11 -10z m-245 -14 c0 -2 -7 -7 -16 -10 -8 -3 -12 -2 -9 4 6 10 25 14 25 6z m20 -40 c0 -3 -5 -8 -12 -12 -7 -4 -8 -3 -4 4 7 12 16 16 16 8z m47 -113 c-4 -3 -7 0 -7 7 0 7 3 10 7 7 3 -4 3 -10 0 -14z m344 -66 c-6 -8 -7 -18 -3 -22 4 -5 1 -5 -6 -1 -10 6 -10 11 -1 22 6 8 14 14 16 14 3 0 0 -6 -6 -13z m-3064 -34 c2 -6 -3 -13 -12 -17 -9 -3 -13 -2 -10 4 3 6 1 10 -5 10 -6 0 -8 5 -5 11 8 12 27 7 32 -8z m3133 13 c0 -3 -5 -8 -12 -12 -7 -4 -8 -3 -4 4 7 12 16 16 16 8z m-346 -46 c-5 -5 -10 3 -11 18 -1 22 0 24 9 8 6 -10 6 -22 2 -26z m297 13 c13 -16 12 -17 -3 -4 -17 13 -22 21 -14 21 2 0 10 -8 17 -17z m-3024 -10 c0 -14 -23 -18 -31 -4 -7 10 0 18 17 18 8 0 14 -6 14 -14z m38 -23 c3 -6 -1 -7 -9 -4 -18 7 -21 14 -7 14 6 0 13 -4 16 -10z m2725 -24 c0 -3 -5 -8 -12 -12 -7 -4 -8 -3 -4 4 7 12 16 16 16 8z m-2635 -64 c-3 -3 -11 0 -18 7 -9 10 -8 11 6 5 10 -3 15 -9 12 -12z m70 8 c3 -6 -1 -7 -9 -4 -18 7 -21 14 -7 14 6 0 13 -4 16 -10z m2912 -17 c-4 -3 -10 -3 -14 0 -3 4 0 7 7 7 7 0 10 -3 7 -7z m-2937 -17 c0 -2 -8 -10 -17 -17 -16 -13 -17 -12 -4 4 13 16 21 21 21 13z m127 -23 c-4 -3 -7 0 -7 7 0 7 3 10 7 7 3 -4 3 -10 0 -14z m2830 10 c-4 -3 -10 -3 -14 0 -3 4 0 7 7 7 7 0 10 -3 7 -7z m33 -37 c0 -3 -5 -8 -12 -12 -7 -4 -8 -3 -4 4 7 12 16 16 16 8z m-2875 -26 c3 -5 4 -10 1 -10 -3 0 -8 5 -11 10 -3 6 -4 10 -1 10 3 0 8 -4 11 -10z m55 -42 c0 -6 -8 -4 -18 5 -10 10 -22 14 -27 10 -4 -5 -5 -2 -1 5 9 14 46 -2 46 -20z m180 -2 c0 -3 -5 -8 -12 -12 -7 -4 -8 -3 -4 4 7 12 16 16 16 8z m2350 -10 c0 -3 -5 -8 -12 -12 -7 -4 -8 -3 -4 4 7 12 16 16 16 8z m-2305 -26 c3 -6 -1 -7 -9 -4 -18 7 -21 14 -7 14 6 0 13 -4 16 -10z m-148 -7 c-4 -3 -10 -3 -14 0 -3 4 0 7 7 7 7 0 10 -3 7 -7z m240 -10 c-4 -3 -7 0 -7 7 0 7 3 10 7 7 3 -4 3 -10 0 -14z m2573 13 c0 -3 -5 -8 -12 -12 -7 -4 -8 -3 -4 4 7 12 16 16 16 8z m-2783 -33 c-4 -3 -7 0 -7 7 0 7 3 10 7 7 3 -4 3 -10 0 -14z m-37 3 c0 -3 -5 -8 -12 -12 -7 -4 -8 -3 -4 4 7 12 16 16 16 8z m246 -12 c18 -14 18 -14 -6 -3 -31 14 -36 19 -24 19 6 0 19 -7 30 -16z m2219 6 c3 -5 4 -10 1 -10 -3 0 -8 5 -11 10 -3 6 -4 10 -1 10 3 0 8 -4 11 -10z m-2390 -9 c3 -5 2 -12 -3 -15 -5 -3 -9 1 -9 9 0 17 3 19 12 6z m235 -15 c0 -3 -5 -8 -12 -12 -7 -4 -8 -3 -4 4 7 12 16 16 16 8z m-180 -20 c0 -3 -5 -8 -12 -12 -7 -4 -8 -3 -4 4 7 12 16 16 16 8z m2410 -46 c6 -11 8 -20 6 -20 -3 0 -10 9 -16 20 -6 11 -8 20 -6 20 3 0 10 -9 16 -20z m-2110 6 c0 -3 -5 -8 -12 -12 -7 -4 -8 -3 -4 4 7 12 16 16 16 8z m-260 -10 c0 -3 -5 -8 -12 -12 -7 -4 -8 -3 -4 4 7 12 16 16 16 8z m75 -26 c3 -5 4 -10 1 -10 -3 0 -8 5 -11 10 -3 6 -4 10 -1 10 3 0 8 -4 11 -10z m2696 -55 l10 -20 -16 20 c-9 11 -21 29 -26 40 l-10 20 16 -20 c9 -11 21 -29 26 -40z m19 41 c0 -3 -5 -8 -12 -12 -7 -4 -8 -3 -4 4 7 12 16 16 16 8z m-2630 -40 c0 -3 -5 -8 -12 -12 -7 -4 -8 -3 -4 4 7 12 16 16 16 8z m2670 -20 c0 -3 -5 -8 -12 -12 -7 -4 -8 -3 -4 4 7 12 16 16 16 8z m-2285 -16 c3 -5 4 -10 1 -10 -3 0 -8 5 -11 10 -3 6 -4 10 -1 10 3 0 8 -4 11 -10z m32 -17 c-4 -3 -10 -3 -14 0 -3 4 0 7 7 7 7 0 10 -3 7 -7z m-20 -20 c-4 -3 -10 -3 -14 0 -3 4 0 7 7 7 7 0 10 -3 7 -7z m43 -23 c0 -5 -2 -10 -4 -10 -3 0 -8 5 -11 10 -3 6 -1 10 4 10 6 0 11 -4 11 -10z m2275 -20 c3 -5 4 -10 1 -10 -3 0 -8 5 -11 10 -3 6 -4 10 -1 10 3 0 8 -4 11 -10z m-2170 -10 c3 -5 4 -10 1 -10 -3 0 -8 5 -11 10 -3 6 -4 10 -1 10 3 0 8 -4 11 -10z m1779 -16 c3 -8 2 -12 -4 -9 -6 3 -10 10 -10 16 0 14 7 11 14 -7z m-1789 -4 c3 -6 -1 -7 -9 -4 -18 7 -21 14 -7 14 6 0 13 -4 16 -10z m2170 0 c3 -5 4 -10 1 -10 -3 0 -8 5 -11 10 -3 6 -4 10 -1 10 3 0 8 -4 11 -10z m-2110 -30 c3 -6 -1 -7 -9 -4 -18 7 -21 14 -7 14 6 0 13 -4 16 -10z m62 -7 c-4 -3 -7 0 -7 7 0 7 3 10 7 7 3 -4 3 -10 0 -14z m-27 3 c0 -3 -5 -8 -12 -12 -7 -4 -8 -3 -4 4 7 12 16 16 16 8z m2110 0 c0 -3 -5 -8 -12 -12 -7 -4 -8 -3 -4 4 7 12 16 16 16 8z m-376 -42 c3 -8 2 -12 -4 -9 -6 3 -10 10 -10 16 0 14 7 11 14 -7z m-2047 -31 c-4 -3 -10 -3 -14 0 -3 4 0 7 7 7 7 0 10 -3 7 -7z m2520 -10 c-4 -3 -7 0 -7 7 0 7 3 10 7 7 3 -4 3 -10 0 -14z m-2062 -3 c3 -6 -1 -7 -9 -4 -18 7 -21 14 -7 14 6 0 13 -4 16 -10z m1582 3 c-4 -3 -10 -3 -14 0 -3 4 0 7 7 7 7 0 10 -3 7 -7z m-1952 -23 c3 -5 4 -10 1 -10 -3 0 -8 5 -11 10 -3 6 -4 10 -1 10 3 0 8 -4 11 -10z m45 -4 c0 -3 -5 -8 -12 -12 -7 -4 -8 -3 -4 4 7 12 16 16 16 8z m2360 -16 c0 -5 -2 -10 -4 -10 -3 0 -8 5 -11 10 -3 6 -1 10 4 10 6 0 11 -4 11 -10z m-2325 -10 c3 -5 4 -10 1 -10 -3 0 -8 5 -11 10 -3 6 -4 10 -1 10 3 0 8 -4 11 -10z m502 -7 c-4 -3 -10 -3 -14 0 -3 4 0 7 7 7 7 0 10 -3 7 -7z m3 -17 c0 -3 -5 -8 -12 -12 -7 -4 -8 -3 -4 4 7 12 16 16 16 8z m1856 -18 c0 -10 -1 -18 -3 -18 -1 0 -7 8 -12 18 -7 13 -6 19 2 19 7 0 13 -9 13 -19z m-2276 -12 c0 -3 -5 -8 -12 -12 -7 -4 -8 -3 -4 4 7 12 16 16 16 8z m1875 -6 c3 -5 4 -10 1 -10 -3 0 -8 5 -11 10 -3 6 -4 10 -1 10 3 0 8 -4 11 -10z m-1850 -10 c3 -5 1 -10 -4 -10 -6 0 -11 5 -11 10 0 6 2 10 4 10 3 0 8 -4 11 -10z m2272 -7 c-4 -3 -10 -3 -14 0 -3 4 0 7 7 7 7 0 10 -3 7 -7z m-393 -40 c12 -25 13 -33 3 -39 -6 -4 -9 -4 -5 1 4 4 1 20 -7 36 -8 15 -15 31 -15 35 0 11 5 3 24 -33z m-1820 1 c3 -8 2 -12 -4 -9 -6 3 -10 10 -10 16 0 14 7 11 14 -7z m516 -40 c0 -2 -9 0 -20 6 -11 6 -20 13 -20 16 0 2 9 0 20 -6 11 -6 20 -13 20 -16z m-455 6 c3 -5 4 -10 1 -10 -3 0 -8 5 -11 10 -3 6 -4 10 -1 10 3 0 8 -4 11 -10z m2205 -10 c0 -5 -2 -10 -4 -10 -3 0 -8 5 -11 10 -3 6 -1 10 4 10 6 0 11 -4 11 -10z m-2175 -10 c3 -5 4 -10 1 -10 -3 0 -8 5 -11 10 -3 6 -4 10 -1 10 3 0 8 -4 11 -10z m511 -26 c18 -14 18 -14 -6 -3 -31 14 -36 19 -24 19 6 0 19 -7 30 -16z m61 -11 c-4 -3 -10 -3 -14 0 -3 4 0 7 7 7 7 0 10 -3 7 -7z m1638 -13 c3 -5 4 -10 1 -10 -3 0 -8 5 -11 10 -3 6 -4 10 -1 10 3 0 8 -4 11 -10z m-1520 -40 c3 -5 4 -10 1 -10 -3 0 -8 5 -11 10 -3 6 -4 10 -1 10 3 0 8 -4 11 -10z m-520 -19 c3 -5 2 -12 -3 -15 -5 -3 -9 1 -9 9 0 17 3 19 12 6z m622 -8 c-4 -3 -10 -3 -14 0 -3 4 0 7 7 7 7 0 10 -3 7 -7z m-61 -19 c18 -14 18 -14 -6 -3 -31 14 -36 19 -24 19 6 0 19 -7 30 -16z m1529 6 c3 -5 4 -10 1 -10 -3 0 -8 5 -11 10 -3 6 -4 10 -1 10 3 0 8 -4 11 -10z m-1408 -7 c-4 -3 -10 -3 -14 0 -3 4 0 7 7 7 7 0 10 -3 7 -7z m961 -13 c-7 -10 -14 -17 -17 -15 -4 4 18 35 25 35 2 0 -1 -9 -8 -20z m-1483 -65 c20 -16 20 -16 -1 -6 -12 6 -24 8 -28 6 -3 -3 -4 -2 -1 2 3 3 -3 12 -13 20 -16 13 -15 13 3 4 11 -5 29 -17 40 -26z m2002 8 c-4 -3 -7 0 -7 7 0 7 3 10 7 7 3 -4 3 -10 0 -14z m-2063 -1 c3 -5 -1 -9 -9 -9 -8 0 -12 4 -9 9 3 4 7 8 9 8 2 0 6 -4 9 -8z m611 -2 c3 -6 -1 -7 -9 -4 -18 7 -21 14 -7 14 6 0 13 -4 16 -10z m1482 -17 c-4 -3 -7 0 -7 7 0 7 3 10 7 7 3 -4 3 -10 0 -14z m-1362 -3 c3 -5 4 -10 1 -10 -3 0 -8 5 -11 10 -3 6 -4 10 -1 10 3 0 8 -4 11 -10z m-630 -10 c3 -5 4 -10 1 -10 -3 0 -8 5 -11 10 -3 6 -4 10 -1 10 3 0 8 -4 11 -10z m1975 6 c0 -3 -5 -8 -12 -12 -7 -4 -8 -3 -4 4 7 12 16 16 16 8z m-1945 -25 c3 -5 2 -12 -3 -15 -5 -3 -9 1 -9 9 0 17 3 19 12 6z m1460 -11 c3 -5 4 -10 1 -10 -3 0 -8 5 -11 10 -3 6 -4 10 -1 10 3 0 8 -4 11 -10z m490 0 c3 -5 4 -10 1 -10 -3 0 -8 5 -11 10 -3 6 -4 10 -1 10 3 0 8 -4 11 -10z m-1925 -4 c0 -3 -5 -8 -12 -12 -7 -4 -8 -3 -4 4 7 12 16 16 16 8z m25 -16 c3 -5 1 -10 -4 -10 -6 0 -11 5 -11 10 0 6 2 10 4 10 3 0 8 -4 11 -10z m1945 -24 c0 -3 -5 -8 -12 -12 -7 -4 -8 -3 -4 4 7 12 16 16 16 8z m-1105 -46 c-3 -5 -12 -10 -18 -10 -7 0 -6 4 3 10 19 12 23 12 15 0z m-720 -10 c3 -5 4 -10 1 -10 -3 0 -8 5 -11 10 -3 6 -4 10 -1 10 3 0 8 -4 11 -10z m-68 -17 c-4 -3 -7 0 -7 7 0 7 3 10 7 7 3 -4 3 -10 0 -14z m738 -4 c-7 -10 -35 -1 -35 11 0 5 9 6 20 3 11 -3 17 -9 15 -14z m-650 -19 c3 -5 4 -10 1 -10 -3 0 -8 5 -11 10 -3 6 -4 10 -1 10 3 0 8 -4 11 -10z m1383 -15 c7 -15 8 -27 2 -30 -6 -4 -10 2 -10 12 0 11 -5 24 -12 31 -7 7 -8 12 -2 12 6 0 16 -11 22 -25z m487 -15 c3 -5 4 -10 1 -10 -3 0 -8 5 -11 10 -3 6 -4 10 -1 10 3 0 8 -4 11 -10z m-1090 -20 c3 -6 -1 -7 -9 -4 -18 7 -21 14 -7 14 6 0 13 -4 16 -10z m-695 -4 c0 -3 -5 -8 -12 -12 -7 -4 -8 -3 -4 4 7 12 16 16 16 8z m1865 -5 c3 -5 2 -12 -3 -15 -5 -3 -9 1 -9 9 0 17 3 19 12 6z m-45 -5 c0 -3 -5 -8 -12 -12 -7 -4 -8 -3 -4 4 7 12 16 16 16 8z m-1725 -26 c3 -6 -1 -7 -9 -4 -18 7 -21 14 -7 14 6 0 13 -4 16 -10z m1740 -20 c3 -5 4 -10 1 -10 -3 0 -8 5 -11 10 -3 6 -4 10 -1 10 3 0 8 -4 11 -10z m-960 -30 c3 -6 -1 -7 -9 -4 -18 7 -21 14 -7 14 6 0 13 -4 16 -10z m62 3 c-4 -3 -10 -3 -14 0 -3 4 0 7 7 7 7 0 10 -3 7 -7z m427 -9 c3 -8 2 -12 -4 -9 -6 3 -10 10 -10 16 0 14 7 11 14 -7z m491 6 c3 -5 4 -10 1 -10 -3 0 -8 5 -11 10 -3 6 -4 10 -1 10 3 0 8 -4 11 -10z m-1778 -7 c-4 -3 -10 -3 -14 0 -3 4 0 7 7 7 7 0 10 -3 7 -7z m1806 -33 c9 -11 13 -20 7 -20 -5 0 -14 9 -20 20 -6 11 -9 20 -8 20 2 0 11 -9 21 -20z m-1646 -17 c-4 -3 -7 0 -7 7 0 7 3 10 7 7 3 -4 3 -10 0 -14z m28 -3 c3 -5 4 -10 1 -10 -3 0 -8 5 -11 10 -3 6 -4 10 -1 10 3 0 8 -4 11 -10z m862 -7 c-4 -3 -10 -3 -14 0 -3 4 0 7 7 7 7 0 10 -3 7 -7z m9 -69 c18 -14 18 -14 -6 -3 -31 14 -36 19 -24 19 6 0 19 -7 30 -16z m291 -1 c-4 -3 -10 -3 -14 0 -3 4 0 7 7 7 7 0 10 -3 7 -7z m518 -3 c3 -5 4 -10 1 -10 -3 0 -8 5 -11 10 -3 6 -4 10 -1 10 3 0 8 -4 11 -10z m23 -45 c-3 -3 -9 2 -12 12 -6 14 -5 15 5 6 7 -7 10 -15 7 -18z m-692 -21 c18 -14 18 -14 -6 -3 -31 14 -36 19 -24 19 6 0 19 -7 30 -16z m-781 -4 c3 -6 -1 -7 -9 -4 -18 7 -21 14 -7 14 6 0 13 -4 16 -10z m836 -23 c-10 -9 -11 -8 -5 6 3 10 9 15 12 12 3 -3 0 -11 -7 -18z m684 -17 c3 -5 4 -10 1 -10 -3 0 -8 5 -11 10 -3 6 -4 10 -1 10 3 0 8 -4 11 -10z m-1445 -4 c0 -3 -5 -8 -12 -12 -7 -4 -8 -3 -4 4 7 12 16 16 16 8z m875 -36 c3 -6 -1 -7 -9 -4 -18 7 -21 14 -7 14 6 0 13 -4 16 -10z m78 -23 c3 -8 -1 -14 -8 -14 -7 0 -11 6 -8 14 3 7 6 13 8 13 2 0 5 -6 8 -13z m-858 -7 c3 -5 4 -10 1 -10 -3 0 -8 5 -11 10 -3 6 -4 10 -1 10 3 0 8 -4 11 -10z m25 -14 c0 -3 -5 -8 -12 -12 -7 -4 -8 -3 -4 4 7 12 16 16 16 8z m1387 -3 c-4 -3 -10 -3 -14 0 -3 4 0 7 7 7 7 0 10 -3 7 -7z m37 -54 c-3 -5 -10 -7 -15 -3 -5 3 -7 10 -3 15 3 5 10 7 15 3 5 -3 7 -10 3 -15z m-1337 -16 c-4 -3 -7 0 -7 7 0 7 3 10 7 7 3 -4 3 -10 0 -14z m-47 3 c0 -3 -5 -8 -12 -12 -7 -4 -8 -3 -4 4 7 12 16 16 16 8z m1397 -13 c-4 -3 -10 -3 -14 0 -3 4 0 7 7 7 7 0 10 -3 7 -7z m50 -15 c-3 -8 -6 -5 -6 6 -1 11 2 17 5 13 3 -3 4 -12 1 -19z m-1322 -16 c-3 -3 -11 0 -18 7 -9 10 -8 11 6 5 10 -3 15 -9 12 -12z m26 -35 c-10 -9 -11 -8 -5 6 3 10 9 15 12 12 3 -3 0 -11 -7 -18z m1286 6 c-4 -3 -10 -3 -14 0 -3 4 0 7 7 7 7 0 10 -3 7 -7z m-1236 -20 c13 -16 12 -17 -3 -4 -17 13 -22 21 -14 21 2 0 10 -8 17 -17z m-26 -13 c3 -5 4 -10 1 -10 -3 0 -8 5 -11 10 -3 6 -4 10 -1 10 3 0 8 -4 11 -10z m1305 -44 c0 -6 -7 -1 -15 10 -8 10 -15 23 -15 28 0 6 7 1 15 -10 8 -10 15 -23 15 -28z m-1280 20 c0 -3 -5 -8 -12 -12 -7 -4 -8 -3 -4 4 7 12 16 16 16 8z m1330 -20 c0 -3 -5 -8 -12 -12 -7 -4 -8 -3 -4 4 7 12 16 16 16 8z m47 -63 c-4 -3 -7 0 -7 7 0 7 3 10 7 7 3 -4 3 -10 0 -14z m-42 -23 c3 -5 4 -10 1 -10 -3 0 -8 5 -11 10 -3 6 -4 10 -1 10 3 0 8 -4 11 -10z m-1095 -4 c0 -3 -5 -8 -12 -12 -7 -4 -8 -3 -4 4 7 12 16 16 16 8z m907 -33 c-4 -3 -7 0 -7 7 0 7 3 10 7 7 3 -4 3 -10 0 -14z m-22 -3 c3 -5 4 -10 1 -10 -3 0 -8 5 -11 10 -3 6 -4 10 -1 10 3 0 8 -4 11 -10z m-25 -4 c0 -3 -5 -8 -12 -12 -7 -4 -8 -3 -4 4 7 12 16 16 16 8z m177 -33 c-4 -3 -10 -3 -14 0 -3 4 0 7 7 7 7 0 10 -3 7 -7z m43 -7 c-7 -7 -13 -7 -20 0 -6 6 -3 10 10 10 13 0 16 -4 10 -10z m87 -13 c-4 -3 -7 0 -7 7 0 7 3 10 7 7 3 -4 3 -10 0 -14z m-2 -31 c-3 -3 -11 0 -18 7 -9 10 -8 11 6 5 10 -3 15 -9 12 -12z m32 -9 c-4 -3 -7 0 -7 7 0 7 3 10 7 7 3 -4 3 -10 0 -14z m-457 -7 c0 -3 -5 -8 -12 -12 -7 -4 -8 -3 -4 4 7 12 16 16 16 8z m50 0 c0 -3 -5 -8 -12 -12 -7 -4 -8 -3 -4 4 7 12 16 16 16 8z m-550 -20 c0 -3 -5 -8 -12 -12 -7 -4 -8 -3 -4 4 7 12 16 16 16 8z m480 -10 c0 -3 -5 -8 -12 -12 -7 -4 -8 -3 -4 4 7 12 16 16 16 8z m515 -24 c-3 -3 -11 0 -18 7 -9 10 -8 11 6 5 10 -3 15 -9 12 -12z m-940 -2 c3 -5 4 -10 1 -10 -3 0 -8 5 -11 10 -3 6 -4 10 -1 10 3 0 8 -4 11 -10z m402 -17 c-4 -3 -7 0 -7 7 0 7 3 10 7 7 3 -4 3 -10 0 -14z m67 -8 c-4 -8 -8 -15 -10 -15 -2 0 -4 7 -4 15 0 8 4 15 10 15 5 0 7 -7 4 -15z m-394 -21 c0 -2 -7 -4 -15 -4 -8 0 -15 4 -15 10 0 5 7 7 15 4 8 -4 15 -8 15 -10z m887 9 c-4 -3 -10 -3 -14 0 -3 4 0 7 7 7 7 0 10 -3 7 -7z m-520 -60 c-4 -3 -7 0 -7 7 0 7 3 10 7 7 3 -4 3 -10 0 -14z m-237 -40 c0 -7 -39 17 -46 28 -3 6 5 3 20 -6 14 -10 26 -19 26 -22z m175 8 c3 -5 1 -12 -5 -16 -5 -3 -10 1 -10 9 0 18 6 21 15 7z m-110 -49 c-3 -3 -11 0 -18 7 -9 10 -8 11 6 5 10 -3 15 -9 12 -12z m-58 -29 c-4 -3 -10 -3 -14 0 -3 4 0 7 7 7 7 0 10 -3 7 -7z m750 -20 c-4 -3 -7 0 -7 7 0 7 3 10 7 7 3 -4 3 -10 0 -14z m-510 -10 c-4 -3 -7 0 -7 7 0 7 3 10 7 7 3 -4 3 -10 0 -14z m-82 -3 c3 -6 -1 -7 -9 -4 -18 7 -21 14 -7 14 6 0 13 -4 16 -10z m22 -7 c-4 -3 -7 0 -7 7 0 7 3 10 7 7 3 -4 3 -10 0 -14z m30 -10 c-4 -3 -10 -3 -14 0 -3 4 0 7 7 7 7 0 10 -3 7 -7z m43 3 c0 -3 -5 -8 -12 -12 -7 -4 -8 -3 -4 4 7 12 16 16 16 8z m-93 -23 c-4 -3 -7 0 -7 7 0 7 3 10 7 7 3 -4 3 -10 0 -14z m580 10 c-4 -3 -10 -3 -14 0 -3 4 0 7 7 7 7 0 10 -3 7 -7z m8 -53 c3 -5 4 -10 1 -10 -3 0 -8 5 -11 10 -3 6 -4 10 -1 10 3 0 8 -4 11 -10z m-430 -20 c3 -5 1 -10 -4 -10 -6 0 -11 5 -11 10 0 6 2 10 4 10 3 0 8 -4 11 -10z m365 6 c0 -3 -5 -8 -12 -12 -7 -4 -8 -3 -4 4 7 12 16 16 16 8z m27 -23 c-4 -3 -10 -3 -14 0 -3 4 0 7 7 7 7 0 10 -3 7 -7z m-92 -23 c-3 -5 -12 -10 -18 -10 -7 0 -6 4 3 10 19 12 23 12 15 0z m-31 -18 c3 -5 -1 -9 -9 -9 -8 0 -15 4 -15 9 0 4 4 8 9 8 6 0 12 -4 15 -8z m-37 -9 c-4 -3 -10 -3 -14 0 -3 4 0 7 7 7 7 0 10 -3 7 -7z m-4720 -120 c-4 -3 -7 0 -7 7 0 7 3 10 7 7 3 -4 3 -10 0 -14z m753 13 c0 -3 -5 -8 -12 -12 -7 -4 -8 -3 -4 4 7 12 16 16 16 8z m-53 -43 c-4 -3 -10 -3 -14 0 -3 4 0 7 7 7 7 0 10 -3 7 -7z m-720 -20 c-4 -3 -7 0 -7 7 0 7 3 10 7 7 3 -4 3 -10 0 -14z m90 10 c-4 -3 -10 -3 -14 0 -3 4 0 7 7 7 7 0 10 -3 7 -7z m517 -19 c3 -8 2 -12 -4 -9 -6 3 -10 10 -10 16 0 14 7 11 14 -7z m-594 -14 c0 -5 -2 -10 -4 -10 -3 0 -8 5 -11 10 -3 6 -1 10 4 10 6 0 11 -4 11 -10z m765 -10 c3 -5 4 -10 1 -10 -3 0 -8 5 -11 10 -3 6 -4 10 -1 10 3 0 8 -4 11 -10z m-610 -11 c11 -17 -1 -21 -15 -4 -8 9 -8 15 -2 15 6 0 14 -5 17 -11z m450 1 c3 -5 4 -10 1 -10 -3 0 -8 5 -11 10 -3 6 -4 10 -1 10 3 0 8 -4 11 -10z m-602 -25 c-3 -9 -8 -14 -10 -11 -3 3 -2 9 2 15 9 16 15 13 8 -4z m197 1 c0 -3 -5 -8 -12 -12 -7 -4 -8 -3 -4 4 7 12 16 16 16 8z m340 -30 c0 -3 -5 -8 -12 -12 -7 -4 -8 -3 -4 4 7 12 16 16 16 8z m-53 -43 c-4 -3 -10 -3 -14 0 -3 4 0 7 7 7 7 0 10 -3 7 -7z m-192 -13 c3 -5 4 -10 1 -10 -3 0 -8 5 -11 10 -3 6 -4 10 -1 10 3 0 8 -4 11 -10z m120 0 c3 -5 4 -10 1 -10 -3 0 -8 5 -11 10 -3 6 -4 10 -1 10 3 0 8 -4 11 -10z m40 0 c3 -6 -1 -7 -9 -4 -18 7 -21 14 -7 14 6 0 13 -4 16 -10z m260 -30 c3 -5 4 -10 1 -10 -3 0 -8 5 -11 10 -3 6 -4 10 -1 10 3 0 8 -4 11 -10z m-354 -17 c13 -17 13 -17 -6 -3 -11 8 -22 16 -24 17 -2 2 0 3 6 3 6 0 17 -8 24 -17z m44 7 c3 -5 4 -10 1 -10 -3 0 -8 5 -11 10 -3 6 -4 10 -1 10 3 0 8 -4 11 -10z m-308 -147 c-4 -3 -7 0 -7 7 0 7 3 10 7 7 3 -4 3 -10 0 -14z m573 -67 c0 -3 -5 -8 -12 -12 -7 -4 -8 -3 -4 4 7 12 16 16 16 8z m-580 -15 c0 -5 -11 -16 -25 -25 -15 -10 -25 -12 -25 -5 0 6 9 13 20 16 11 3 20 9 20 14 0 5 2 9 5 9 3 0 5 -4 5 -9z m3217 -8 c-4 -3 -7 0 -7 7 0 7 3 10 7 7 3 -4 3 -10 0 -14z m1753 -7 c0 -2 -7 -7 -16 -10 -8 -3 -12 -2 -9 4 6 10 25 14 25 6z m-5030 -30 c0 -3 -5 -8 -12 -12 -7 -4 -8 -3 -4 4 7 12 16 16 16 8z m4940 0 c0 -3 -5 -8 -12 -12 -7 -4 -8 -3 -4 4 7 12 16 16 16 8z m835 -6 c3 -5 4 -10 1 -10 -3 0 -8 5 -11 10 -3 6 -4 10 -1 10 3 0 8 -4 11 -10z m-5842 -15 c-3 -9 -8 -14 -10 -11 -3 3 -2 9 2 15 9 16 15 13 8 -4z m832 5 c3 -5 4 -10 1 -10 -3 0 -8 5 -11 10 -3 6 -4 10 -1 10 3 0 8 -4 11 -10z m4295 -24 c0 -3 -5 -8 -12 -12 -7 -4 -8 -3 -4 4 7 12 16 16 16 8z m-4285 -16 c3 -5 4 -10 1 -10 -3 0 -8 5 -11 10 -3 6 -4 10 -1 10 3 0 8 -4 11 -10z m2182 3 c-4 -3 -10 -3 -14 0 -3 4 0 7 7 7 7 0 10 -3 7 -7z m-3051 -15 c4 -7 4 -10 -1 -6 -4 4 -14 0 -22 -10 -13 -15 -13 -15 -3 6 12 25 16 27 26 10z m5229 2 c3 -5 4 -10 1 -10 -3 0 -8 5 -11 10 -3 6 -4 10 -1 10 3 0 8 -4 11 -10z m10 -30 c3 -5 4 -10 1 -10 -3 0 -8 5 -11 10 -3 6 -4 10 -1 10 3 0 8 -4 11 -10z m-4281 -29 c-2 -3 -12 3 -22 13 -16 17 -16 18 5 5 12 -7 20 -15 17 -18z m4533 12 c-4 -3 -7 0 -7 7 0 7 3 10 7 7 3 -4 3 -10 0 -14z m-2330 -10 c-4 -3 -7 0 -7 7 0 7 3 10 7 7 3 -4 3 -10 0 -14z m2360 0 c-4 -3 -7 0 -7 7 0 7 3 10 7 7 3 -4 3 -10 0 -14z m261 -8 c-3 -3 -9 2 -12 12 -6 14 -5 15 5 6 7 -7 10 -15 7 -18z m-4788 1 c0 -3 -5 -8 -12 -12 -7 -4 -8 -3 -4 4 7 12 16 16 16 8z m2700 -20 c0 -3 -5 -8 -12 -12 -7 -4 -8 -3 -4 4 7 12 16 16 16 8z m-283 -33 c-4 -3 -7 0 -7 7 0 7 3 10 7 7 3 -4 3 -10 0 -14z m-3612 -22 c3 -5 2 -12 -3 -15 -5 -3 -9 1 -9 9 0 17 3 19 12 6z m1345 -21 c0 -5 -5 -10 -11 -10 -5 0 -7 5 -4 10 3 6 8 10 11 10 2 0 4 -4 4 -10z m-33 -7 c-4 -3 -10 -3 -14 0 -3 4 0 7 7 7 7 0 10 -3 7 -7z m-1342 -41 c-3 -3 -11 0 -18 7 -9 10 -8 11 6 5 10 -3 15 -9 12 -12z m532 -29 c-4 -3 -7 0 -7 7 0 7 3 10 7 7 3 -4 3 -10 0 -14z m4330 0 c-4 -3 -7 0 -7 7 0 7 3 10 7 7 3 -4 3 -10 0 -14z m-4320 -20 c-4 -3 -10 -3 -14 0 -3 4 0 7 7 7 7 0 10 -3 7 -7z m13 -33 c0 -5 -5 -10 -11 -10 -5 0 -7 5 -4 10 3 6 8 10 11 10 2 0 4 -4 4 -10z m247 -7 c-4 -3 -10 -3 -14 0 -3 4 0 7 7 7 7 0 10 -3 7 -7z m-228 -55 c6 -18 7 -28 2 -23 -10 12 -25 55 -18 55 3 0 10 -15 16 -32z m3446 22 c3 -5 4 -10 1 -10 -3 0 -8 5 -11 10 -3 6 -4 10 -1 10 3 0 8 -4 11 -10z m792 -17 c-4 -3 -10 -3 -14 0 -3 4 0 7 7 7 7 0 10 -3 7 -7z m-4040 -20 c-4 -3 -7 0 -7 7 0 7 3 10 7 7 3 -4 3 -10 0 -14z m-167 -83 c0 -5 -2 -10 -4 -10 -3 0 -8 5 -11 10 -3 6 -1 10 4 10 6 0 11 -4 11 -10z m137 -7 c-4 -3 -7 0 -7 7 0 7 3 10 7 7 3 -4 3 -10 0 -14z m-10 -30 c-4 -3 -7 0 -7 7 0 7 3 10 7 7 3 -4 3 -10 0 -14z m3260 0 c-4 -3 -7 0 -7 7 0 7 3 10 7 7 3 -4 3 -10 0 -14z m-137 -17 c0 -3 -5 -8 -12 -12 -7 -4 -8 -3 -4 4 7 12 16 16 16 8z m20 -30 c0 -3 -5 -8 -12 -12 -7 -4 -8 -3 -4 4 7 12 16 16 16 8z m1717 -33 c-4 -3 -7 0 -7 7 0 7 3 10 7 7 3 -4 3 -10 0 -14z m-347 3 c0 -3 -5 -8 -12 -12 -7 -4 -8 -3 -4 4 7 12 16 16 16 8z m-1753 -23 c-4 -3 -7 0 -7 7 0 7 3 10 7 7 3 -4 3 -10 0 -14z m-2787 -7 c0 -3 -5 -8 -12 -12 -7 -4 -8 -3 -4 4 7 12 16 16 16 8z m-73 -23 c-4 -3 -10 -3 -14 0 -3 4 0 7 7 7 7 0 10 -3 7 -7z m30 -20 c-4 -3 -7 0 -7 7 0 7 3 10 7 7 3 -4 3 -10 0 -14z"
       id="path3839" />
  </g>
  <g
     id="layer103"
     fill="#d9505d"
     stroke="none">
    <path
       d="M1968 11833 c1086 -2 2859 -2 3940 0 1082 1 194 2 -1973 2 -2167 0 -3052 -1 -1967 -2z"
       id="path3842" />
    <path
       d="M60 10625 l0 -1155 1338 0 c1137 0 1347 3 1407 15 142 30 280 122 317 211 9 22 20 50 26 64 l11 25 0 -27 c3 -93 90 -217 184 -259 l52 -24 2208 -3 2207 -2 0 1155 0 1155 -3875 0 -3875 0 0 -1155z m2640 573 c65 -30 132 -95 162 -158 19 -37 23 -66 26 -163 l4 -118 -133 3 -134 3 -3 110 c-2 72 -8 117 -17 132 -30 45 -95 42 -120 -7 -13 -24 -15 -85 -15 -374 l0 -345 27 -21 c21 -16 37 -20 61 -16 58 9 62 17 62 137 l0 109 136 0 137 0 -5 -102 c-7 -148 -47 -228 -148 -293 -80 -51 -257 -59 -352 -17 -58 25 -119 88 -152 155 l-26 51 0 346 c0 402 1 408 84 496 74 79 142 106 261 101 71 -2 102 -8 145 -29z m3580 0 c66 -30 136 -97 170 -164 l25 -49 0 -350 c0 -347 0 -351 -24 -402 -27 -62 -94 -127 -158 -155 -87 -38 -251 -34 -335 8 -43 22 -98 84 -129 146 l-29 57 0 335 c0 313 1 339 20 390 36 94 105 158 219 202 56 22 175 13 241 -18z m-4677 -10 c3 -18 9 -60 12 -93 11 -101 4 -95 110 -95 102 0 100 -1 104 66 1 22 4 49 6 60 2 10 4 36 4 57 l1 37 145 0 c109 0 145 -3 145 -12 0 -7 -27 -152 -60 -323 -34 -170 -83 -423 -109 -562 -27 -139 -52 -256 -55 -262 -4 -6 -74 -9 -178 -8 l-172 2 -7 40 c-10 54 -108 595 -162 888 l-43 237 127 0 127 0 5 -32z m1677 -218 l0 -250 75 0 75 0 0 250 0 250 135 0 135 0 -2 -577 -3 -578 -132 -3 -133 -3 0 216 0 215 -75 0 -75 0 0 -215 0 -215 -135 0 -135 0 0 580 0 580 135 0 135 0 0 -250z m1980 0 l0 -250 75 0 75 0 0 250 0 250 135 0 135 0 0 -580 0 -580 -135 0 -135 0 0 215 0 215 -75 0 -75 0 0 -215 0 -215 -135 0 -135 0 0 580 0 580 135 0 135 0 0 -250z m1551 233 c0 -10 6 -58 12 -108 l12 -90 97 -3 97 -3 5 43 c4 24 8 57 10 73 2 17 5 47 5 68 l1 37 145 0 c109 0 145 -3 145 -12 -1 -44 -221 -1143 -231 -1149 -16 -9 -321 -11 -335 -2 -7 5 -26 89 -44 188 -17 99 -63 351 -101 559 -38 209 -69 388 -69 398 0 16 11 18 125 18 112 0 125 -2 126 -17z m-5701 -19 c61 -28 106 -77 127 -138 22 -61 24 -269 4 -328 -14 -41 -81 -108 -109 -108 -35 0 -31 -13 13 -42 68 -45 89 -97 89 -227 1 -89 -3 -114 -21 -154 -29 -62 -76 -104 -137 -122 -60 -18 -445 -22 -477 -5 -18 10 -19 27 -19 581 l0 570 243 -3 c221 -3 246 -5 287 -24z m3320 -129 l0 -156 34 -50 33 -49 52 177 c29 98 56 189 60 203 8 25 8 25 148 28 l141 3 -34 -108 c-18 -60 -69 -215 -113 -346 l-80 -239 114 -229 115 -229 -144 0 -143 0 -83 220 c-46 121 -87 220 -92 220 -4 0 -8 -99 -8 -220 l0 -220 -125 0 -125 0 0 575 0 575 125 0 125 0 0 -155z m-2589 -1170 c32 -44 58 -85 59 -92 0 -7 -24 -11 -74 -11 -125 0 -121 -2 -155 99 l-30 90 71 -3 72 -3 57 -80z"
       id="path3844" />
    <path
       d="M6092 11015 l-27 -23 -5 -339 c-3 -186 -1 -350 3 -365 16 -50 113 -62 138 -17 6 13 10 143 9 362 0 314 -2 344 -18 366 -28 38 -67 44 -100 16z"
       id="path3846" />
    <path
       d="M1654 10783 c3 -21 18 -132 32 -248 14 -115 27 -219 29 -230 2 -11 4 -23 4 -27 1 -5 8 -8 16 -8 17 0 21 24 35 175 6 61 15 162 21 225 5 63 12 123 15 133 5 15 -3 17 -76 17 l-82 0 6 -37z"
       id="path3848" />
    <path
       d="M6860 10814 c0 -22 52 -429 66 -511 7 -48 32 -42 38 10 11 76 46 445 46 477 l0 30 -75 0 c-41 0 -75 -3 -75 -6z"
       id="path3850" />
    <path
       d="M847 10979 c-10 -79 -8 -257 2 -263 4 -3 31 -6 60 -7 82 -3 91 11 91 142 0 105 -1 110 -27 139 -21 22 -40 32 -74 36 l-46 6 -6 -53z"
       id="path3852" />
    <path
       d="M868 10513 c-24 -6 -31 -54 -25 -165 3 -51 6 -94 6 -95 1 -2 25 -3 54 -3 77 0 87 14 87 124 0 79 -2 89 -25 111 -13 14 -31 25 -39 25 -8 0 -20 2 -28 4 -7 2 -21 2 -30 -1z"
       id="path3854" />
    <path
       d="M3150 9200 l0 -380 -145 0 -145 0 0 -143 0 -144 -97 -28 c-197 -58 -425 -193 -591 -349 l-70 -67 -121 71 c-66 38 -124 70 -129 70 -4 0 -33 -44 -64 -97 -31 -54 -104 -181 -162 -282 -59 -101 -105 -185 -104 -186 2 -1 61 -34 131 -74 101 -58 127 -77 122 -90 -4 -9 -16 -59 -28 -111 -18 -80 -21 -128 -21 -300 0 -175 3 -220 22 -307 12 -56 25 -108 28 -116 4 -10 -27 -33 -103 -77 -59 -34 -118 -69 -130 -76 l-22 -14 53 -92 c173 -304 270 -468 278 -468 5 0 64 32 130 70 66 39 123 70 125 70 3 0 43 -36 89 -80 149 -140 356 -262 552 -324 46 -14 90 -26 98 -26 12 0 14 -26 14 -150 l0 -150 145 0 145 0 0 -577 0 -578 163 -83 c207 -107 883 -450 1366 -693 205 -104 380 -194 388 -200 7 -7 15 -10 17 -8 5 4 -95 205 -289 584 -232 454 -524 1026 -717 1405 -69 135 -143 279 -165 320 -22 41 -127 246 -233 455 -508 1001 -510 1005 -522 1005 -5 0 -8 -270 -8 -600 l0 -600 -27 0 c-16 0 -69 7 -118 15 -528 85 -941 461 -1071 972 -34 134 -43 213 -39 353 11 483 290 922 720 1135 160 79 297 118 493 139 l42 4 0 -553 c0 -393 3 -556 11 -561 6 -3 18 -21 26 -38 17 -37 41 -79 68 -121 40 -64 111 -173 147 -227 21 -31 38 -59 38 -62 0 -3 16 -28 35 -54 19 -27 40 -59 48 -73 19 -35 128 -206 199 -311 21 -31 38 -59 38 -62 0 -4 23 -41 52 -84 51 -76 113 -171 133 -204 6 -9 46 -72 89 -140 44 -68 95 -148 114 -178 20 -30 57 -87 84 -127 26 -39 48 -74 48 -77 0 -3 13 -25 29 -48 88 -131 131 -198 131 -203 0 -4 20 -35 45 -69 25 -35 45 -66 45 -69 0 -3 20 -35 45 -70 25 -36 45 -68 45 -71 0 -3 16 -28 35 -55 19 -26 35 -52 35 -55 0 -4 20 -36 45 -70 25 -35 45 -66 45 -69 0 -3 20 -35 45 -70 25 -36 45 -68 45 -71 0 -3 16 -28 35 -55 19 -26 35 -52 35 -55 0 -4 20 -35 44 -69 24 -34 45 -66 47 -72 4 -11 58 -94 121 -187 21 -31 38 -59 38 -63 0 -3 17 -32 39 -63 51 -76 135 -203 141 -217 7 -15 77 -122 121 -187 22 -31 39 -59 39 -62 0 -3 13 -25 29 -48 16 -24 50 -77 76 -118 26 -41 65 -101 86 -132 22 -31 39 -60 39 -63 0 -4 20 -35 45 -69 24 -35 50 -74 58 -87 14 -27 70 -114 129 -201 21 -31 38 -59 38 -62 0 -3 20 -34 45 -69 25 -36 45 -69 45 -75 0 -5 7 -15 15 -22 9 -7 30 -43 48 -79 28 -59 32 -76 32 -151 0 -67 -5 -94 -23 -131 -36 -73 -85 -123 -158 -159 -61 -30 -76 -33 -147 -31 -69 1 -89 6 -148 35 -38 19 -101 56 -141 84 -40 27 -120 79 -178 116 -173 112 -288 187 -388 254 -51 34 -95 62 -98 62 -4 0 -142 90 -321 211 -40 27 -75 49 -78 49 -3 0 -48 29 -100 65 -53 36 -98 65 -101 65 -3 0 -54 32 -112 71 -244 163 -283 189 -288 189 -3 0 -51 31 -107 69 -56 37 -149 99 -207 136 -163 105 -288 186 -374 243 -43 29 -82 52 -87 52 -5 0 -9 -769 -9 -1860 l0 -1860 2335 0 2335 0 0 4675 0 4675 -2187 2 c-2236 1 -2244 1 -2291 13 -45 10 -131 75 -154 116 -12 22 -25 39 -30 39 -4 0 -8 -171 -8 -380z m1700 -7495 l0 -45 -80 0 -80 0 0 45 0 45 80 0 80 0 0 -45z m1570 0 l0 -45 -85 0 -85 0 0 45 0 45 85 0 85 0 0 -45z m15 -145 c56 -26 101 -76 120 -137 15 -45 17 -86 13 -275 -4 -229 -5 -238 -48 -292 -8 -10 -33 -30 -55 -44 -34 -22 -51 -25 -125 -26 -117 -1 -161 21 -214 107 -15 25 -17 55 -14 290 3 259 3 262 27 298 64 94 189 128 296 79z m505 10 c100 -27 158 -108 167 -237 l6 -73 -97 0 -96 0 0 75 c0 62 -4 79 -20 95 -26 26 -42 25 -66 -1 -17 -19 -19 -41 -22 -227 -2 -113 -1 -221 3 -239 7 -38 34 -54 75 -43 24 6 25 11 28 83 l3 77 93 0 93 0 -2 -42 c-6 -125 -32 -184 -100 -223 -51 -31 -124 -40 -200 -26 -64 12 -98 35 -137 93 l-28 41 0 252 c0 280 0 282 67 348 63 61 132 75 233 47z m-2599 -12 c37 -19 81 -59 102 -91 17 -26 18 -51 15 -295 -3 -254 -4 -269 -25 -301 -43 -67 -58 -71 -255 -71 l-178 0 0 150 c0 149 0 150 -22 150 -21 0 -23 5 -23 55 0 50 2 55 23 55 22 0 22 0 22 180 l0 179 123 3 c158 4 187 2 218 -14z m337 8 c5 -3 12 -37 16 -76 l7 -70 65 0 c43 0 66 4 69 13 3 6 6 41 8 76 l3 65 97 0 c113 1 106 12 78 -129 -11 -49 -32 -155 -48 -235 -17 -80 -40 -204 -53 -276 l-23 -132 -111 -4 c-77 -3 -115 -1 -124 7 -7 6 -18 41 -23 76 -14 83 -25 150 -39 219 -5 30 -15 82 -21 115 -6 33 -14 80 -19 105 -5 25 -13 72 -19 105 -6 33 -15 79 -19 102 -5 23 -8 44 -6 45 5 6 152 0 162 -6z m592 -382 l0 -391 -87 2 -88 3 -3 378 c-1 209 -1 383 2 389 2 6 42 10 90 11 l86 0 0 -392z m458 223 l2 -167 55 0 55 0 0 164 0 165 85 3 c88 3 97 -1 90 -38 -2 -11 -4 -180 -4 -376 l-1 -358 -85 0 -85 0 0 145 0 144 -52 -3 -53 -3 -5 -143 -5 -143 -72 1 c-40 0 -80 1 -88 1 -13 1 -15 51 -15 389 l0 387 88 0 87 0 3 -168z"
       id="path3856" />
    <path
       d="M6300 1428 c-19 -21 -20 -34 -20 -254 0 -245 1 -250 48 -259 11 -2 28 3 39 10 16 12 18 33 20 245 l2 232 -24 24 c-30 30 -39 30 -65 2z"
       id="path3858" />
    <path
       d="M4172 1333 l5 -118 32 -3 c32 -3 32 -3 29 -55 -3 -48 -5 -52 -30 -55 -25 -3 -27 -7 -32 -65 -9 -97 -5 -111 27 -115 16 -2 39 4 53 13 l24 15 0 229 c0 256 0 257 -75 266 l-37 5 4 -117z"
       id="path3860" />
    <path
       d="M4724 1298 c-4 -5 -3 -30 1 -56 4 -26 9 -58 11 -72 15 -130 24 -194 30 -214 10 -31 23 -4 28 59 3 33 9 89 13 125 4 36 7 87 7 115 l1 49 -43 2 c-23 0 -45 -3 -48 -8z"
       id="path3862" />
    <path
       d="M3309 6858 c76 -148 450 -880 958 -1878 75 -146 177 -346 228 -445 51 -99 165 -322 253 -495 88 -173 237 -466 331 -650 94 -184 171 -336 171 -338 0 -3 -314 156 -1085 548 -148 76 -477 242 -730 370 -253 128 -559 283 -680 345 -672 343 -1195 605 -1195 598 0 -4 40 -33 88 -64 48 -31 821 -533 1717 -1116 897 -583 1682 -1093 1745 -1134 63 -41 191 -124 285 -185 93 -61 172 -110 173 -108 2 1 -1 25 -7 53 -29 134 54 287 189 350 62 28 162 39 210 23 16 -6 30 -9 30 -6 0 2 -25 44 -56 92 -32 48 -185 287 -342 532 -157 245 -360 562 -452 705 -92 143 -224 350 -295 460 -70 110 -179 279 -240 375 -422 657 -1027 1601 -1183 1847 -103 161 -190 292 -195 293 -4 0 33 -78 82 -172z"
       id="path3864" />
    <path
       d="M5780 2649 c-96 -43 -153 -131 -153 -239 0 -77 17 -122 70 -180 51 -57 110 -83 189 -82 156 1 264 108 264 263 0 84 -36 158 -98 206 -75 57 -188 70 -272 32z"
       id="path3866" />
    <path
       d="M1190 2043 c0 -4 34 -112 76 -241 41 -129 74 -235 72 -237 -2 -1 -93 -67 -203 -146 l-200 -144 252 -3 252 -2 79 -242 78 -242 63 194 c35 107 70 216 78 243 l14 47 250 0 c140 0 248 4 245 9 -3 5 -91 70 -195 145 -105 75 -192 140 -194 144 -3 4 29 110 70 236 40 126 72 231 69 233 -3 3 -89 -56 -192 -132 -102 -75 -193 -139 -200 -142 -8 -3 -102 60 -214 141 -110 80 -200 142 -200 139z"
       id="path3868" />
  </g>
  <g
     id="layer104"
     stroke="none"
     fill="#f3c309">
    <path
       d="M60 10625 l0 -1155 1338 0 c1137 0 1347 3 1407 15 142 30 280 122 317 211 9 22 20 50 26 64 l11 25 0 -27 c3 -93 90 -217 184 -259 l52 -24 2208 -3 2207 -2 0 1155 0 1155 -3875 0 -3875 0 0 -1155z m2640 573 c65 -30 132 -95 162 -158 19 -37 23 -66 26 -163 l4 -118 -133 3 -134 3 -3 110 c-2 72 -8 117 -17 132 -30 45 -95 42 -120 -7 -13 -24 -15 -85 -15 -374 l0 -345 27 -21 c21 -16 37 -20 61 -16 58 9 62 17 62 137 l0 109 136 0 137 0 -5 -102 c-7 -148 -47 -228 -148 -293 -80 -51 -257 -59 -352 -17 -58 25 -119 88 -152 155 l-26 51 0 346 c0 402 1 408 84 496 74 79 142 106 261 101 71 -2 102 -8 145 -29z m3580 0 c66 -30 136 -97 170 -164 l25 -49 0 -350 c0 -347 0 -351 -24 -402 -27 -62 -94 -127 -158 -155 -87 -38 -251 -34 -335 8 -43 22 -98 84 -129 146 l-29 57 0 335 c0 313 1 339 20 390 36 94 105 158 219 202 56 22 175 13 241 -18z m-4677 -10 c3 -18 9 -60 12 -93 11 -101 4 -95 110 -95 102 0 100 -1 104 66 1 22 4 49 6 60 2 10 4 36 4 57 l1 37 145 0 c109 0 145 -3 145 -12 0 -7 -27 -152 -60 -323 -34 -170 -83 -423 -109 -562 -27 -139 -52 -256 -55 -262 -4 -6 -74 -9 -178 -8 l-172 2 -7 40 c-10 54 -108 595 -162 888 l-43 237 127 0 127 0 5 -32z m1677 -218 l0 -250 75 0 75 0 0 250 0 250 135 0 135 0 -2 -577 -3 -578 -132 -3 -133 -3 0 216 0 215 -75 0 -75 0 0 -215 0 -215 -135 0 -135 0 0 580 0 580 135 0 135 0 0 -250z m1980 0 l0 -250 75 0 75 0 0 250 0 250 135 0 135 0 0 -580 0 -580 -135 0 -135 0 0 215 0 215 -75 0 -75 0 0 -215 0 -215 -135 0 -135 0 0 580 0 580 135 0 135 0 0 -250z m1551 233 c0 -10 6 -58 12 -108 l12 -90 97 -3 97 -3 5 43 c4 24 8 57 10 73 2 17 5 47 5 68 l1 37 145 0 c109 0 145 -3 145 -12 -1 -44 -221 -1143 -231 -1149 -16 -9 -321 -11 -335 -2 -7 5 -26 89 -44 188 -17 99 -63 351 -101 559 -38 209 -69 388 -69 398 0 16 11 18 125 18 112 0 125 -2 126 -17z m-5701 -19 c61 -28 106 -77 127 -138 22 -61 24 -269 4 -328 -14 -41 -81 -108 -109 -108 -35 0 -31 -13 13 -42 68 -45 89 -97 89 -227 1 -89 -3 -114 -21 -154 -29 -62 -76 -104 -137 -122 -60 -18 -445 -22 -477 -5 -18 10 -19 27 -19 581 l0 570 243 -3 c221 -3 246 -5 287 -24z m3320 -129 l0 -156 34 -50 33 -49 52 177 c29 98 56 189 60 203 8 25 8 25 148 28 l141 3 -34 -108 c-18 -60 -69 -215 -113 -346 l-80 -239 114 -229 115 -229 -144 0 -143 0 -83 220 c-46 121 -87 220 -92 220 -4 0 -8 -99 -8 -220 l0 -220 -125 0 -125 0 0 575 0 575 125 0 125 0 0 -155z m-2589 -1170 c32 -44 58 -85 59 -92 0 -7 -24 -11 -74 -11 -125 0 -121 -2 -155 99 l-30 90 71 -3 72 -3 57 -80z"
       id="path3871"
       style="fill:#febd49;fill-opacity:1" />
    <path
       d="M6092 11015 l-27 -23 -5 -339 c-3 -186 -1 -350 3 -365 16 -50 113 -62 138 -17 6 13 10 143 9 362 0 314 -2 344 -18 366 -28 38 -67 44 -100 16z"
       id="path3873"
       style="fill:#febd49;fill-opacity:1" />
    <path
       d="M1654 10783 c3 -21 18 -132 32 -248 14 -115 27 -219 29 -230 2 -11 4 -23 4 -27 1 -5 8 -8 16 -8 17 0 21 24 35 175 6 61 15 162 21 225 5 63 12 123 15 133 5 15 -3 17 -76 17 l-82 0 6 -37z"
       id="path3875"
       style="fill:#febd49;fill-opacity:1" />
    <path
       d="M6860 10814 c0 -22 52 -429 66 -511 7 -48 32 -42 38 10 11 76 46 445 46 477 l0 30 -75 0 c-41 0 -75 -3 -75 -6z"
       id="path3877"
       style="fill:#febd49;fill-opacity:1" />
    <path
       d="M847 10979 c-10 -79 -8 -257 2 -263 4 -3 31 -6 60 -7 82 -3 91 11 91 142 0 105 -1 110 -27 139 -21 22 -40 32 -74 36 l-46 6 -6 -53z"
       id="path3879"
       style="fill:#febd49;fill-opacity:1" />
    <path
       d="M868 10513 c-24 -6 -31 -54 -25 -165 3 -51 6 -94 6 -95 1 -2 25 -3 54 -3 77 0 87 14 87 124 0 79 -2 89 -25 111 -13 14 -31 25 -39 25 -8 0 -20 2 -28 4 -7 2 -21 2 -30 -1z"
       id="path3881"
       style="fill:#febd49;fill-opacity:1" />
    <path
       d="M3150 9200 l0 -380 -145 0 -145 0 0 -143 0 -144 -97 -28 c-197 -58 -425 -193 -591 -349 l-70 -67 -121 71 c-66 38 -124 70 -129 70 -4 0 -33 -44 -64 -97 -31 -54 -104 -181 -162 -282 -59 -101 -105 -185 -104 -186 2 -1 61 -34 131 -74 101 -58 127 -77 122 -90 -4 -9 -16 -59 -28 -111 -18 -80 -21 -128 -21 -300 0 -175 3 -220 22 -307 12 -56 25 -108 28 -116 4 -10 -27 -33 -103 -77 -59 -34 -118 -69 -130 -76 l-22 -14 53 -92 c173 -304 270 -468 278 -468 5 0 64 32 130 70 66 39 123 70 125 70 3 0 43 -36 89 -80 149 -140 356 -262 552 -324 46 -14 90 -26 98 -26 12 0 14 -26 14 -150 l0 -150 145 0 145 0 0 -577 0 -578 298 -151 c163 -83 477 -243 697 -354 220 -111 523 -265 674 -342 l273 -140 -227 448 c-125 247 -240 472 -255 499 -15 28 -112 217 -215 420 -103 204 -225 442 -270 530 -116 225 -286 557 -470 920 -87 171 -181 355 -210 410 -29 55 -103 200 -164 323 -62 122 -117 222 -122 222 -5 0 -9 -244 -9 -600 l0 -600 -27 0 c-16 0 -69 7 -118 15 -528 85 -941 461 -1071 972 -34 134 -43 213 -39 353 11 483 290 922 720 1135 160 79 297 118 493 139 l42 4 0 -544 0 -545 65 -112 c36 -62 87 -145 113 -184 26 -40 94 -147 152 -238 58 -91 155 -241 215 -335 61 -94 164 -254 230 -358 66 -103 148 -232 184 -287 35 -55 93 -145 128 -200 35 -55 90 -140 122 -190 32 -49 212 -331 401 -625 188 -294 368 -574 399 -623 31 -48 78 -122 105 -165 27 -42 68 -106 91 -142 24 -36 84 -130 135 -210 51 -80 107 -167 125 -195 73 -112 169 -262 269 -419 58 -91 143 -223 189 -293 138 -212 142 -222 142 -327 0 -74 -4 -99 -23 -137 -36 -74 -87 -125 -160 -161 -58 -29 -76 -33 -142 -32 -95 1 -136 18 -330 146 -145 94 -279 182 -483 313 -59 39 -176 115 -260 170 -84 55 -219 143 -300 195 -148 96 -429 278 -697 453 -80 52 -190 124 -245 159 -55 36 -152 98 -215 140 -153 99 -199 128 -205 128 -3 0 -5 -837 -5 -1860 l0 -1860 2330 0 2330 0 0 4675 0 4675 -2203 0 c-2410 0 -2277 -3 -2355 57 -19 14 -46 45 -61 69 -14 24 -29 44 -33 44 -5 0 -8 -171 -8 -380z m1710 -7495 l0 -55 -90 0 -90 0 0 55 0 55 90 0 90 0 0 -55z m1560 0 l0 -55 -85 0 -85 0 0 55 0 55 85 0 85 0 0 -55z m-1 -137 c46 -14 110 -74 132 -123 16 -35 19 -69 19 -260 0 -129 -5 -236 -11 -260 -15 -53 -85 -120 -141 -136 -52 -14 -166 -6 -205 14 -36 19 -65 52 -92 102 -20 37 -21 55 -21 267 0 211 2 232 21 273 55 117 169 164 298 123z m536 0 c93 -36 143 -113 152 -233 l6 -75 -97 0 -96 0 0 75 c0 62 -4 79 -20 95 -26 26 -42 25 -66 -1 -17 -19 -19 -41 -22 -238 -2 -127 1 -227 7 -242 11 -31 40 -41 73 -25 20 10 23 20 26 84 l3 72 93 0 94 0 -4 -72 c-8 -139 -79 -217 -205 -226 -110 -8 -178 22 -231 100 l-28 41 0 254 c0 200 3 260 14 282 21 39 100 109 133 117 15 3 33 7 38 9 16 6 98 -5 130 -17z m-2589 -23 c24 -14 55 -42 69 -63 l25 -37 0 -259 c0 -242 -1 -263 -21 -302 -37 -77 -60 -84 -263 -84 l-176 0 0 150 c0 149 0 150 -22 150 -21 0 -23 5 -23 55 0 50 2 55 23 55 22 0 22 0 22 180 l0 179 123 3 c172 4 194 2 243 -27z m329 -41 l10 -69 62 -3 c71 -3 70 -4 75 92 l3 50 98 0 c59 1 97 -3 98 -9 0 -5 -33 -179 -73 -386 l-73 -377 -115 -4 c-63 -3 -118 -3 -122 1 -7 6 -147 763 -142 771 1 3 40 5 86 4 l83 0 10 -70z m575 -320 l0 -391 -87 2 -88 3 -3 378 c-1 209 -1 383 2 389 2 6 42 10 90 11 l86 0 0 -392z m470 225 l0 -169 45 0 45 0 0 168 0 167 90 0 c53 0 90 -4 90 -10 2 -30 -1 -760 -3 -761 -1 -2 -40 -4 -87 -5 l-85 -2 -5 144 -5 144 -30 -1 c-16 -1 -36 -2 -42 -3 -9 -1 -13 -40 -15 -143 l-3 -142 -80 1 c-44 1 -86 2 -92 2 -10 1 -13 86 -13 389 l0 387 95 1 95 1 0 -168z"
       id="path3883"
       style="fill:#febd49;fill-opacity:1" />
    <path
       d="M6300 1428 c-19 -21 -20 -34 -20 -254 0 -245 1 -250 48 -259 11 -2 28 3 39 10 16 12 18 33 20 245 l2 232 -24 24 c-30 30 -39 30 -65 2z"
       id="path3885" />
    <path
       d="M4186 1437 c-16 -12 -18 -25 -14 -118 l5 -104 32 -3 c32 -3 32 -3 29 -55 -3 -48 -5 -52 -30 -55 -25 -3 -27 -7 -32 -65 -9 -97 -5 -111 27 -115 16 -2 39 4 53 13 l24 15 0 229 c0 205 -2 229 -17 243 -27 24 -57 29 -77 15z"
       id="path3887" />
    <path
       d="M4725 1300 c-3 -4 2 -52 10 -106 8 -55 17 -128 21 -164 7 -72 19 -106 27 -80 8 26 36 344 31 350 -8 8 -84 8 -89 0z"
       id="path3889" />
    <path
       d="M3309 6858 c76 -148 450 -880 958 -1878 75 -146 177 -346 228 -445 51 -99 165 -322 253 -495 88 -173 237 -466 331 -650 94 -184 171 -336 171 -338 0 -3 -314 156 -1085 548 -148 76 -477 242 -730 370 -253 128 -559 283 -680 345 -672 343 -1195 605 -1195 598 0 -4 40 -33 88 -64 48 -31 821 -533 1717 -1116 897 -583 1682 -1093 1745 -1134 63 -41 191 -124 285 -185 93 -61 172 -110 173 -108 2 1 -1 25 -7 53 -29 134 54 287 189 350 62 28 162 39 210 23 16 -6 30 -9 30 -6 0 2 -25 44 -56 92 -32 48 -185 287 -342 532 -157 245 -360 562 -452 705 -92 143 -224 350 -295 460 -70 110 -179 279 -240 375 -422 657 -1027 1601 -1183 1847 -103 161 -190 292 -195 293 -4 0 33 -78 82 -172z"
       id="path3891"
       style="fill:#febd49;fill-opacity:1" />
    <path
       d="M5780 2649 c-96 -43 -153 -131 -153 -239 0 -77 17 -122 70 -180 51 -57 110 -83 189 -82 156 1 264 108 264 263 0 84 -36 158 -98 206 -75 57 -188 70 -272 32z"
       id="path3893"
       style="fill:#febd49;fill-opacity:1" />
    <path
       d="M1190 2043 c0 -4 34 -112 76 -241 41 -129 74 -235 72 -237 -2 -1 -93 -67 -203 -146 l-200 -144 252 -3 252 -2 79 -242 78 -242 63 194 c35 107 70 216 78 243 l14 47 250 0 c140 0 248 4 245 9 -3 5 -91 70 -195 145 -105 75 -192 140 -194 144 -3 4 29 110 70 236 40 126 72 231 69 233 -3 3 -89 -56 -192 -132 -102 -75 -193 -139 -200 -142 -8 -3 -102 60 -214 141 -110 80 -200 142 -200 139z"
       id="path3895"
       style="fill:#febd49;fill-opacity:1" />
  </g>
  <g
     id="layer105"
     fill="#ffffff"
     stroke="none">
    <path
       d="M3150 9200 l0 -380 185 0 184 0 3 -141 3 -141 84 -25 c229 -66 445 -189 612 -350 l67 -64 98 57 c55 31 107 62 116 68 11 7 21 7 27 1 12 -12 321 -546 321 -555 0 -3 -51 -35 -112 -70 -62 -35 -114 -64 -116 -65 -2 -2 6 -38 17 -81 11 -44 23 -101 27 -129 3 -27 8 -59 10 -70 3 -11 5 -83 5 -160 0 -142 -17 -287 -48 -398 -9 -32 -14 -59 -12 -61 2 -1 54 -31 114 -66 61 -35 112 -64 114 -66 4 -3 -204 -371 -294 -520 l-30 -51 -121 69 -120 68 -55 -50 c-30 -28 -80 -72 -111 -97 -32 -25 -58 -48 -58 -50 0 -2 25 -43 56 -91 31 -48 86 -132 121 -187 35 -55 90 -140 122 -190 32 -49 212 -331 401 -625 188 -294 368 -574 399 -623 31 -48 78 -122 105 -165 27 -42 68 -106 91 -142 24 -36 84 -130 135 -210 51 -80 107 -167 125 -195 73 -112 169 -262 269 -419 58 -91 143 -223 189 -293 138 -212 142 -222 142 -327 0 -74 -4 -99 -23 -137 -36 -74 -87 -125 -160 -161 -58 -29 -76 -33 -142 -32 -95 1 -136 18 -330 146 -145 94 -279 182 -483 313 -59 39 -176 115 -260 170 -84 55 -219 143 -300 195 -148 96 -429 278 -697 453 -80 52 -190 124 -245 159 -55 36 -152 98 -215 140 -153 99 -199 128 -205 128 -3 0 -5 -837 -5 -1860 l0 -1860 2330 0 2330 0 0 4675 0 4675 -2203 0 c-2410 0 -2277 -3 -2355 57 -19 14 -46 45 -61 69 -14 24 -29 44 -33 44 -5 0 -8 -171 -8 -380z m1710 -7495 l0 -55 -90 0 -90 0 0 55 0 55 90 0 90 0 0 -55z m1560 0 l0 -55 -85 0 -85 0 0 55 0 55 85 0 85 0 0 -55z m-1 -137 c46 -14 110 -74 132 -123 16 -35 19 -69 19 -260 0 -129 -5 -236 -11 -260 -15 -53 -85 -120 -141 -136 -52 -14 -166 -6 -205 14 -36 19 -65 52 -92 102 -20 37 -21 55 -21 267 0 211 2 232 21 273 55 117 169 164 298 123z m536 0 c93 -36 143 -113 152 -233 l6 -75 -97 0 -96 0 0 75 c0 62 -4 79 -20 95 -26 26 -42 25 -66 -1 -17 -19 -19 -41 -22 -238 -2 -127 1 -227 7 -242 11 -31 40 -41 73 -25 20 10 23 20 26 84 l3 72 93 0 94 0 -4 -72 c-8 -139 -79 -217 -205 -226 -110 -8 -178 22 -231 100 l-28 41 0 254 c0 200 3 260 14 282 21 39 100 109 133 117 15 3 33 7 38 9 16 6 98 -5 130 -17z m-2589 -23 c24 -14 55 -42 69 -63 l25 -37 0 -259 c0 -242 -1 -263 -21 -302 -37 -77 -60 -84 -263 -84 l-176 0 0 150 c0 149 0 150 -22 150 -21 0 -23 5 -23 55 0 50 2 55 23 55 22 0 22 0 22 180 l0 179 123 3 c172 4 194 2 243 -27z m329 -41 l10 -69 62 -3 c71 -3 70 -4 75 92 l3 50 98 0 c59 1 97 -3 98 -9 0 -5 -33 -179 -73 -386 l-73 -377 -115 -4 c-63 -3 -118 -3 -122 1 -7 6 -147 763 -142 771 1 3 40 5 86 4 l83 0 10 -70z m575 -320 l0 -391 -87 2 -88 3 -3 378 c-1 209 -1 383 2 389 2 6 42 10 90 11 l86 0 0 -392z m470 225 l0 -169 45 0 45 0 0 168 0 167 90 0 c53 0 90 -4 90 -10 2 -30 -1 -760 -3 -761 -1 -2 -40 -4 -87 -5 l-85 -2 -5 144 -5 144 -30 -1 c-16 -1 -36 -2 -42 -3 -9 -1 -13 -40 -15 -143 l-3 -142 -80 1 c-44 1 -86 2 -92 2 -10 1 -13 86 -13 389 l0 387 95 1 95 1 0 -168z"
       id="path3898" />
    <path
       d="M6300 1428 c-19 -21 -20 -34 -20 -254 0 -245 1 -250 48 -259 11 -2 28 3 39 10 16 12 18 33 20 245 l2 232 -24 24 c-30 30 -39 30 -65 2z"
       id="path3900" />
    <path
       d="M4186 1437 c-16 -12 -18 -25 -14 -118 l5 -104 32 -3 c32 -3 32 -3 29 -55 -3 -48 -5 -52 -30 -55 -25 -3 -27 -7 -32 -65 -9 -97 -5 -111 27 -115 16 -2 39 4 53 13 l24 15 0 229 c0 205 -2 229 -17 243 -27 24 -57 29 -77 15z"
       id="path3902" />
    <path
       d="M4725 1300 c-3 -4 2 -52 10 -106 8 -55 17 -128 21 -164 7 -72 19 -106 27 -80 8 26 36 344 31 350 -8 8 -84 8 -89 0z"
       id="path3904" />
    <path
       d="M3158 8394 c-5 -4 -8 -250 -8 -546 l0 -539 66 -112 c36 -62 85 -143 110 -182 25 -38 94 -146 154 -240 111 -173 257 -401 400 -622 44 -68 83 -123 87 -123 18 0 174 143 229 210 218 264 327 583 311 908 -17 336 -145 623 -386 863 -200 201 -422 316 -711 368 -78 14 -244 24 -252 15z"
       id="path3906" />
    <path
       d="M3150 6380 l0 -601 93 2 c139 2 406 62 462 103 16 12 12 22 -52 147 -71 135 -249 483 -403 787 -45 89 -86 162 -91 162 -5 0 -9 -257 -9 -600z"
       id="path3908" />
    <path
       d="M3735 5704 c-33 -13 -94 -34 -135 -45 -41 -12 -77 -23 -78 -24 -2 -2 -3 -67 -3 -144 l2 -141 -186 0 -185 0 0 -577 0 -578 298 -151 c163 -83 477 -243 697 -354 220 -111 523 -265 674 -342 l273 -140 -237 469 c-131 257 -241 473 -245 478 -4 6 -102 197 -218 425 -116 228 -267 525 -336 660 -70 135 -154 300 -189 367 -34 68 -64 123 -67 122 -3 0 -32 -12 -65 -25z"
       id="path3910" />
  </g>
</svg>
